<svg width="2498" height="1774" xmlns="http://www.w3.org/2000/svg" xmlns:xlink="http://www.w3.org/1999/xlink" xml:space="preserve" overflow="hidden"><g transform="translate(-72 -126)"><rect x="73.5001" y="843.5" width="2494" height="134" stroke="#C1E5F5" stroke-width="3.4375" stroke-miterlimit="8" fill="#F1F9FD"/><rect x="73.5001" y="127.5" width="625" height="716" stroke="#C1E5F5" stroke-width="3.4375" stroke-miterlimit="8" fill="none"/><text fill="#83CBEB" font-family="Roboto,Roboto_MSFontService,sans-serif" font-weight="700" font-size="55" transform="matrix(1 0 0 1 200.099 195)">Data Modelling</text><path d="M480 357.667C480 351.224 485.223 346 491.667 346L665.333 346C671.776 346 677 351.224 677 357.667L677 404.333C677 410.776 671.776 416 665.333 416L491.667 416C485.223 416 480 410.776 480 404.333Z" stroke="#83CBEB" stroke-width="2.29167" stroke-miterlimit="8" fill="#C1E5F5" fill-rule="evenodd"/><text font-family="Roboto,Roboto_MSFontService,sans-serif" font-weight="400" font-size="46" transform="matrix(1 0 0 1 503.791 397)">Entities</text><path d="M425 454.667C425 448.223 430.223 443 436.667 443L636.333 443C642.777 443 648 448.223 648 454.667L648 501.333C648 507.776 642.777 513 636.333 513L436.667 513C430.223 513 425 507.776 425 501.333Z" stroke="#83CBEB" stroke-width="2.29167" stroke-miterlimit="8" fill="#C1E5F5" fill-rule="evenodd"/><text font-family="Roboto,Roboto_MSFontService,sans-serif" font-weight="400" font-size="46" transform="matrix(1 0 0 1 441.981 495)">Relations</text><path d="M429 551.667C429 545.223 434.223 540 440.667 540L640.333 540C646.777 540 652 545.223 652 551.667L652 598.333C652 604.777 646.777 610 640.333 610L440.667 610C434.223 610 429 604.777 429 598.333Z" stroke="#83CBEB" stroke-width="2.29167" stroke-miterlimit="8" fill="#C1E5F5" fill-rule="evenodd"/><text font-family="Roboto,Roboto_MSFontService,sans-serif" font-weight="400" font-size="46" transform="matrix(1 0 0 1 480.707 592)">Fields</text><path d="M406 260.667C406 254.223 411.223 249 417.667 249L661.333 249C667.777 249 673 254.223 673 260.667L673 307.333C673 313.777 667.777 319 661.333 319L417.667 319C411.223 319 406 313.777 406 307.333Z" stroke="#F7CEBB" stroke-width="2.29167" stroke-miterlimit="8" fill="#FAE1D6" fill-rule="evenodd"/><text font-family="Roboto,Roboto_MSFontService,sans-serif" font-weight="400" font-size="46" transform="matrix(1 0 0 1 425.225 300)">Data Types</text><path d="M104 649.5C104 643.149 109.149 638 115.5 638L392.5 638C398.851 638 404 643.149 404 649.5L404 695.5C404 701.851 398.851 707 392.5 707L115.5 707C109.149 707 104 701.851 104 695.5Z" stroke="#83CBEB" stroke-width="2.29167" stroke-miterlimit="8" fill="#C1E5F5" fill-rule="evenodd"/><text font-family="Roboto,Roboto_MSFontService,sans-serif" font-weight="400" font-size="46" transform="matrix(1 0 0 1 138.268 689)">Hierarchies</text><path d="M104 551.667C104 545.224 109.224 540 115.667 540L392.333 540C398.776 540 404 545.224 404 551.667L404 598.333C404 604.777 398.776 610 392.333 610L115.667 610C109.224 610 104 604.777 104 598.333Z" stroke="#83CBEB" stroke-width="2.29167" stroke-miterlimit="8" fill="#C1E5F5" fill-rule="evenodd"/><text font-family="Roboto,Roboto_MSFontService,sans-serif" font-weight="400" font-size="46" transform="matrix(1 0 0 1 154.309 592)">Attributes</text><path d="M104 357.667C104 351.224 109.224 346 115.667 346L444.333 346C450.777 346 456 351.224 456 357.667L456 404.333C456 410.777 450.777 416 444.333 416L115.667 416C109.224 416 104 410.777 104 404.333Z" stroke="#F7CEBB" stroke-width="2.29167" stroke-miterlimit="8" fill="#FAE1D6" fill-rule="evenodd"/><text font-family="Roboto,Roboto_MSFontService,sans-serif" font-weight="400" font-size="46" transform="matrix(1 0 0 1 129.611 397)">Classifications</text><path d="M104 454.667C104 448.224 109.224 443 115.667 443L392.333 443C398.776 443 404 448.224 404 454.667L404 501.333C404 507.777 398.776 513 392.333 513L115.667 513C109.224 513 104 507.777 104 501.333Z" stroke="#83CBEB" stroke-width="2.29167" stroke-miterlimit="8" fill="#C1E5F5" fill-rule="evenodd"/><text font-family="Roboto,Roboto_MSFontService,sans-serif" font-weight="400" font-size="46" transform="matrix(1 0 0 1 127.955 495)">Taxonomies</text><path d="M104 260.667C104 254.223 109.224 249 115.667 249L374.333 249C380.777 249 386 254.223 386 260.667L386 307.333C386 313.776 380.777 319 374.333 319L115.667 319C109.224 319 104 313.776 104 307.333Z" stroke="#83CBEB" stroke-width="2.29167" stroke-miterlimit="8" fill="#C1E5F5" fill-rule="evenodd"/><text font-family="Roboto,Roboto_MSFontService,sans-serif" font-weight="400" font-size="46" transform="matrix(1 0 0 1 131.591 300)">Inheritance</text><path d="M2207 1388.67C2207 1382.22 2212.22 1377 2218.67 1377L2350.33 1377C2356.78 1377 2362 1382.22 2362 1388.67L2362 1435.33C2362 1441.78 2356.78 1447 2350.33 1447L2218.67 1447C2212.22 1447 2207 1441.78 2207 1435.33Z" stroke="#B4E5A2" stroke-width="2.29167" stroke-miterlimit="8" fill="#D9F2D0" fill-rule="evenodd"/><text font-family="Roboto,Roboto_MSFontService,sans-serif" font-weight="400" font-size="46" transform="matrix(1 0 0 1 2228.16 1429)">LDAP</text><path d="M2206 1289.67C2206 1283.22 2211.22 1278 2217.67 1278L2407.33 1278C2413.78 1278 2419 1283.22 2419 1289.67L2419 1336.33C2419 1342.78 2413.78 1348 2407.33 1348L2217.67 1348C2211.22 1348 2206 1342.78 2206 1336.33Z" stroke="#B4E5A2" stroke-width="2.29167" stroke-miterlimit="8" fill="#D9F2D0" fill-rule="evenodd"/><text font-family="Roboto,Roboto_MSFontService,sans-serif" font-weight="400" font-size="46" transform="matrix(1 0 0 1 2232.05 1330)">Entra ID</text><path d="M725 357.667C725 351.224 730.223 346 736.667 346L1080.33 346C1086.78 346 1092 351.224 1092 357.667L1092 404.333C1092 410.776 1086.78 416 1080.33 416L736.667 416C730.223 416 725 410.776 725 404.333Z" stroke="#B4E5A2" stroke-width="2.29167" stroke-miterlimit="8" fill="#D9F2D0" fill-rule="evenodd"/><text font-family="Roboto,Roboto_MSFontService,sans-serif" font-weight="400" font-size="46" transform="matrix(1 0 0 1 752.776 397)">Cloud Storages</text><path d="M727 260.667C727 254.223 732.224 249 738.667 249L1265.33 249C1271.78 249 1277 254.223 1277 260.667L1277 307.333C1277 313.776 1271.78 319 1265.33 319L738.667 319C732.224 319 727 313.776 727 307.333Z" stroke="#FFDD7D" stroke-width="2.29167" stroke-miterlimit="8" fill="#FFEBB3" fill-rule="evenodd"/><text font-family="Roboto,Roboto_MSFontService,sans-serif" font-weight="400" font-size="46" transform="matrix(1 0 0 1 748.827 300)">Bidirectional integrations</text><path d="M1214 887.5C1214 881.149 1219.15 876 1225.5 876L1528.5 876C1534.85 876 1540 881.149 1540 887.5L1540 933.5C1540 939.851 1534.85 945 1528.5 945L1225.5 945C1219.15 945 1214 939.851 1214 933.5Z" stroke="#A6CAEC" stroke-width="2.29167" stroke-miterlimit="8" fill="#FFFFFF" fill-rule="evenodd"/><text font-family="Roboto,Roboto_MSFontService,sans-serif" font-weight="400" font-size="46" transform="matrix(1 0 0 1 1245.78 927)">Automatable</text><path d="M725 454.667C725 448.224 730.223 443 736.667 443L870.333 443C876.777 443 882 448.224 882 454.667L882 501.333C882 507.776 876.777 513 870.333 513L736.667 513C730.223 513 725 507.776 725 501.333Z" stroke="#FFDD7D" stroke-width="2.29167" stroke-miterlimit="8" fill="#FFEBB3" fill-rule="evenodd"/><text font-family="Roboto,Roboto_MSFontService,sans-serif" font-weight="400" font-size="46" transform="matrix(1 0 0 1 750.226 495)">ERPs</text><path d="M727 551.667C727 545.223 732.223 540 738.667 540L941.333 540C947.776 540 953 545.223 953 551.667L953 598.333C953 604.777 947.776 610 941.333 610L738.667 610C732.223 610 727 604.777 727 598.333Z" stroke="#FFDD7D" stroke-width="2.29167" stroke-miterlimit="8" fill="#FFEBB3" fill-rule="evenodd"/><text font-family="Roboto,Roboto_MSFontService,sans-serif" font-weight="400" font-size="46" transform="matrix(1 0 0 1 746.44 592)">Websites</text><path d="M725 649.5C725 643.149 730.149 638 736.5 638L1043.5 638C1049.85 638 1055 643.149 1055 649.5L1055 695.5C1055 701.851 1049.85 707 1043.5 707L736.5 707C730.149 707 725 701.851 725 695.5Z" stroke="#FFDD7D" stroke-width="2.29167" stroke-miterlimit="8" fill="#FFEBB3" fill-rule="evenodd"/><text font-family="Roboto,Roboto_MSFontService,sans-serif" font-weight="400" font-size="46" transform="matrix(1 0 0 1 751.585 689)">Marketplaces</text><rect x="698.5" y="127.5" width="623" height="716" stroke="#C1E5F5" stroke-width="3.4375" stroke-miterlimit="8" fill="none"/><text fill="#83CBEB" font-family="Roboto,Roboto_MSFontService,sans-serif" font-weight="700" font-size="55" transform="matrix(1 0 0 1 874.122 195)">Integration</text><rect x="1321.5" y="127.5" width="623" height="716" stroke="#C1E5F5" stroke-width="3.4375" stroke-miterlimit="8" fill="none"/><text fill="#83CBEB" font-family="Roboto,Roboto_MSFontService,sans-serif" font-weight="700" font-size="55" transform="matrix(1 0 0 1 1478.23 195)">Connectivity</text><rect x="1944.5" y="127.5" width="624" height="716" stroke="#C1E5F5" stroke-width="3.4375" stroke-miterlimit="8" fill="none"/><text fill="#83CBEB" font-family="Roboto,Roboto_MSFontService,sans-serif" font-weight="700" font-size="55" transform="matrix(1 0 0 1 2090.65 195)">Collaboration</text><rect x="73.5001" y="977.5" width="625" height="799" stroke="#C1E5F5" stroke-width="3.4375" stroke-miterlimit="8" fill="none"/><text fill="#83CBEB" font-family="Roboto,Roboto_MSFontService,sans-serif" font-weight="700" font-size="55" transform="matrix(1 0 0 1 116.402 1046)">Document Generation</text><rect x="697.5" y="977.5" width="624" height="799" stroke="#C1E5F5" stroke-width="3.4375" stroke-miterlimit="8" fill="none"/><text fill="#83CBEB" font-family="Roboto,Roboto_MSFontService,sans-serif" font-weight="700" font-size="55" transform="matrix(1 0 0 1 808.669 1046)">User Experience</text><rect x="1321.5" y="977.5" width="623" height="799" stroke="#C1E5F5" stroke-width="3.4375" stroke-miterlimit="8" fill="none"/><text fill="#83CBEB" font-family="Roboto,Roboto_MSFontService,sans-serif" font-weight="700" font-size="55" transform="matrix(1 0 0 1 1463.09 1046)">Automation &amp; </text><text fill="#83CBEB" font-family="Roboto,Roboto_MSFontService,sans-serif" font-weight="700" font-size="55" transform="matrix(1 0 0 1 1488 1112)">Intelligence</text><rect x="1944.5" y="977.5" width="623" height="799" stroke="#C1E5F5" stroke-width="3.4375" stroke-miterlimit="8" fill="none"/><text fill="#83CBEB" font-family="Roboto,Roboto_MSFontService,sans-serif" font-weight="700" font-size="55" transform="matrix(1 0 0 1 1995.76 1046)">Access Management</text><path d="M724 746.667C724 740.223 729.223 735 735.667 735L870.333 735C876.777 735 882 740.223 882 746.667L882 793.333C882 799.777 876.777 805 870.333 805L735.667 805C729.223 805 724 799.777 724 793.333Z" stroke="#FFDD7D" stroke-width="2.29167" stroke-miterlimit="8" fill="#FFEBB3" fill-rule="evenodd"/><text font-family="Roboto,Roboto_MSFontService,sans-serif" font-weight="400" font-size="46" transform="matrix(1 0 0 1 760.377 786)">SAP</text><path d="M979 552.667C979 546.223 984.223 541 990.667 541L1175.33 541C1181.78 541 1187 546.223 1187 552.667L1187 599.333C1187 605.776 1181.78 611 1175.33 611L990.667 611C984.223 611 979 605.776 979 599.333Z" stroke="#FFDD7D" stroke-width="2.29167" stroke-miterlimit="8" fill="#FFEBB3" fill-rule="evenodd"/><text font-family="Roboto,Roboto_MSFontService,sans-serif" font-weight="400" font-size="46" transform="matrix(1 0 0 1 1006.62 592)">Shopify</text><path d="M1354 260.667C1354 254.223 1359.22 249 1365.67 249L1580.33 249C1586.78 249 1592 254.223 1592 260.667L1592 307.333C1592 313.777 1586.78 319 1580.33 319L1365.67 319C1359.22 319 1354 313.777 1354 307.333Z" stroke="#83CBEB" stroke-width="2.29167" stroke-miterlimit="8" fill="#C1E5F5" fill-rule="evenodd"/><text font-family="Roboto,Roboto_MSFontService,sans-serif" font-weight="400" font-size="46" transform="matrix(1 0 0 1 1377.67 300)">REST API</text><path d="M1354 357.667C1354 351.224 1359.22 346 1365.67 346L1666.33 346C1672.78 346 1678 351.224 1678 357.667L1678 404.333C1678 410.777 1672.78 416 1666.33 416L1365.67 416C1359.22 416 1354 410.777 1354 404.333Z" stroke="#83CBEB" stroke-width="2.29167" stroke-miterlimit="8" fill="#C1E5F5" fill-rule="evenodd"/><text font-family="Roboto,Roboto_MSFontService,sans-serif" font-weight="400" font-size="46" transform="matrix(1 0 0 1 1380 397)">API Requests</text><path d="M1354 454.667C1354 448.223 1359.22 443 1365.67 443L1666.33 443C1672.78 443 1678 448.223 1678 454.667L1678 501.333C1678 507.777 1672.78 513 1666.33 513L1365.67 513C1359.22 513 1354 507.777 1354 501.333Z" stroke="#B4E5A2" stroke-width="2.29167" stroke-miterlimit="8" fill="#D9F2D0" fill-rule="evenodd"/><text font-family="Roboto,Roboto_MSFontService,sans-serif" font-weight="400" font-size="46" transform="matrix(1 0 0 1 1403.49 495)">DB Queries</text><path d="M1354 551.667C1354 545.223 1359.22 540 1365.67 540L1666.33 540C1672.78 540 1678 545.223 1678 551.667L1678 598.333C1678 604.776 1672.78 610 1666.33 610L1365.67 610C1359.22 610 1354 604.776 1354 598.333Z" stroke="#83CBEB" stroke-width="2.29167" stroke-miterlimit="8" fill="#C1E5F5" fill-rule="evenodd"/><text font-family="Roboto,Roboto_MSFontService,sans-serif" font-weight="400" font-size="46" transform="matrix(1 0 0 1 1381.14 592)">Import Feeds</text><path d="M1354 649.5C1354 643.149 1359.15 638 1365.5 638L1666.5 638C1672.85 638 1678 643.149 1678 649.5L1678 695.5C1678 701.851 1672.85 707 1666.5 707L1365.5 707C1359.15 707 1354 701.851 1354 695.5Z" stroke="#83CBEB" stroke-width="2.29167" stroke-miterlimit="8" fill="#C1E5F5" fill-rule="evenodd"/><text font-family="Roboto,Roboto_MSFontService,sans-serif" font-weight="400" font-size="46" transform="matrix(1 0 0 1 1383.15 689)">Export Feeds</text><path d="M1354 746.667C1354 740.223 1359.22 735 1365.67 735L1737.33 735C1743.78 735 1749 740.223 1749 746.667L1749 793.333C1749 799.777 1743.78 805 1737.33 805L1365.67 805C1359.22 805 1354 799.777 1354 793.333Z" stroke="#B4E5A2" stroke-width="2.29167" stroke-miterlimit="8" fill="#D9F2D0" fill-rule="evenodd"/><text font-family="Roboto,Roboto_MSFontService,sans-serif" font-weight="400" font-size="46" transform="matrix(1 0 0 1 1380.85 786)">Transformations</text><path d="M1082 649.5C1082 643.149 1087.15 638 1093.5 638L1264.5 638C1270.85 638 1276 643.149 1276 649.5L1276 695.5C1276 701.851 1270.85 707 1264.5 707L1093.5 707C1087.15 707 1082 701.851 1082 695.5Z" stroke="#83CBEB" stroke-width="2.29167" stroke-miterlimit="8" fill="#C1E5F5" fill-rule="evenodd"/><text font-family="Roboto,Roboto_MSFontService,sans-serif" font-weight="400" font-size="46" transform="matrix(1 0 0 1 1111.14 689)">Events</text><path d="M1706 552.667C1706 546.223 1711.22 541 1717.67 541L1838.33 541C1844.78 541 1850 546.223 1850 552.667L1850 599.333C1850 605.776 1844.78 611 1838.33 611L1717.67 611C1711.22 611 1706 605.776 1706 599.333Z" stroke="#83CBEB" stroke-width="2.29167" stroke-miterlimit="8" fill="#C1E5F5" fill-rule="evenodd"/><text font-family="Roboto,Roboto_MSFontService,sans-serif" font-weight="400" font-size="46" transform="matrix(1 0 0 1 1735.44 592)">CSV</text><path d="M1711 646.667C1711 640.223 1716.22 635 1722.67 635L1823.33 635C1829.78 635 1835 640.223 1835 646.667L1835 693.333C1835 699.777 1829.78 705 1823.33 705L1722.67 705C1716.22 705 1711 699.777 1711 693.333Z" stroke="#83CBEB" stroke-width="2.29167" stroke-miterlimit="8" fill="#C1E5F5" fill-rule="evenodd"/><text font-family="Roboto,Roboto_MSFontService,sans-serif" font-weight="400" font-size="46" transform="matrix(1 0 0 1 1731.11 686)">TXT</text><path d="M1705 454.667C1705 448.224 1710.22 443 1716.67 443L1853.33 443C1859.78 443 1865 448.224 1865 454.667L1865 501.333C1865 507.776 1859.78 513 1853.33 513L1716.67 513C1710.22 513 1705 507.776 1705 501.333Z" stroke="#83CBEB" stroke-width="2.29167" stroke-miterlimit="8" fill="#C1E5F5" fill-rule="evenodd"/><text font-family="Roboto,Roboto_MSFontService,sans-serif" font-weight="400" font-size="46" transform="matrix(1 0 0 1 1730.65 495)">XLSX</text><path d="M1616 260.667C1616 254.223 1621.22 249 1627.67 249L1764.33 249C1770.78 249 1776 254.223 1776 260.667L1776 307.333C1776 313.776 1770.78 319 1764.33 319L1627.67 319C1621.22 319 1616 313.776 1616 307.333Z" stroke="#83CBEB" stroke-width="2.29167" stroke-miterlimit="8" fill="#C1E5F5" fill-rule="evenodd"/><text font-family="Roboto,Roboto_MSFontService,sans-serif" font-weight="400" font-size="46" transform="matrix(1 0 0 1 1637.64 300)">JSON</text><path d="M1705 357.667C1705 351.224 1710.22 346 1716.67 346L1832.33 346C1838.78 346 1844 351.224 1844 357.667L1844 404.333C1844 410.776 1838.78 416 1832.33 416L1716.67 416C1710.22 416 1705 410.776 1705 404.333Z" stroke="#83CBEB" stroke-width="2.29167" stroke-miterlimit="8" fill="#C1E5F5" fill-rule="evenodd"/><text font-family="Roboto,Roboto_MSFontService,sans-serif" font-weight="400" font-size="46" transform="matrix(1 0 0 1 1727.79 397)">XML</text><path d="M1632 1386.67C1632 1380.22 1637.22 1375 1643.67 1375L1873.33 1375C1879.78 1375 1885 1380.22 1885 1386.67L1885 1433.33C1885 1439.78 1879.78 1445 1873.33 1445L1643.67 1445C1637.22 1445 1632 1439.78 1632 1433.33Z" stroke="#83CBEB" stroke-width="2.29167" stroke-miterlimit="8" fill="#C1E5F5" fill-rule="evenodd"/><text font-family="Roboto,Roboto_MSFontService,sans-serif" font-weight="400" font-size="46" transform="matrix(1 0 0 1 1653.7 1426)">Schedules</text><path d="M697 887.5C697 881.149 702.149 876 708.5 876L1171.5 876C1177.85 876 1183 881.149 1183 887.5L1183 933.5C1183 939.851 1177.85 945 1171.5 945L708.5 945C702.149 945 697 939.851 697 933.5Z" stroke="#A6CAEC" stroke-width="2.29167" stroke-miterlimit="8" fill="#FFFFFF" fill-rule="evenodd"/><text font-family="Roboto,Roboto_MSFontService,sans-serif" font-weight="700" font-size="46" transform="matrix(1 0 0 1 735.471 927)">Highly Configurable</text><path d="M104 746.667C104 740.223 109.224 735 115.667 735L534.333 735C540.776 735 546 740.223 546 746.667L546 793.333C546 799.777 540.776 805 534.333 805L115.667 805C109.224 805 104 799.777 104 793.333Z" stroke="#83CBEB" stroke-width="2.29167" stroke-miterlimit="8" fill="#C1E5F5" fill-rule="evenodd"/><text font-family="Roboto,Roboto_MSFontService,sans-serif" font-weight="400" font-size="46" transform="matrix(1 0 0 1 136.948 786)">Relation Attributes</text><path d="M104 1193.67C104 1187.22 109.224 1182 115.667 1182L519.333 1182C525.777 1182 531 1187.22 531 1193.67L531 1240.33C531 1246.78 525.777 1252 519.333 1252L115.667 1252C109.224 1252 104 1246.78 104 1240.33Z" stroke="#83CBEB" stroke-width="2.29167" stroke-miterlimit="8" fill="#C1E5F5" fill-rule="evenodd"/><text font-family="Roboto,Roboto_MSFontService,sans-serif" font-weight="400" font-size="46" transform="matrix(1 0 0 1 141.246 1233)">HTML Templates</text><path d="M420 1385.67C420 1379.22 425.223 1374 431.667 1374L574.333 1374C580.777 1374 586 1379.22 586 1385.67L586 1432.33C586 1438.78 580.777 1444 574.333 1444L431.667 1444C425.223 1444 420 1438.78 420 1432.33Z" stroke="#B4E5A2" stroke-width="2.29167" stroke-miterlimit="8" fill="#D9F2D0" fill-rule="evenodd"/><text font-family="Roboto,Roboto_MSFontService,sans-serif" font-weight="400" font-size="46" transform="matrix(1 0 0 1 449.434 1426)">PDFs</text><path d="M104 1291.67C104 1285.22 109.224 1280 115.667 1280L486.333 1280C492.777 1280 498 1285.22 498 1291.67L498 1338.33C498 1344.78 492.777 1350 486.333 1350L115.667 1350C109.224 1350 104 1344.78 104 1338.33Z" stroke="#B4E5A2" stroke-width="2.29167" stroke-miterlimit="8" fill="#D9F2D0" fill-rule="evenodd"/><text font-family="Roboto,Roboto_MSFontService,sans-serif" font-weight="400" font-size="46" transform="matrix(1 0 0 1 137.373 1332)">ERP Documents</text><path d="M352 1485.67C352 1479.22 357.223 1474 363.667 1474L593.333 1474C599.776 1474 605 1479.22 605 1485.67L605 1532.33C605 1538.78 599.776 1544 593.333 1544L363.667 1544C357.223 1544 352 1538.78 352 1532.33Z" stroke="#FFDD7D" stroke-width="2.29167" stroke-miterlimit="8" fill="#FFEBB3" fill-rule="evenodd"/><text font-family="Roboto,Roboto_MSFontService,sans-serif" font-weight="400" font-size="46" transform="matrix(1 0 0 1 387.95 1525)">Catalogs</text><path d="M104 1485.67C104 1479.22 109.224 1474 115.667 1474L315.333 1474C321.777 1474 327 1479.22 327 1485.67L327 1532.33C327 1538.78 321.777 1544 315.333 1544L115.667 1544C109.224 1544 104 1538.78 104 1532.33Z" stroke="#FFDD7D" stroke-width="2.29167" stroke-miterlimit="8" fill="#FFEBB3" fill-rule="evenodd"/><text font-family="Roboto,Roboto_MSFontService,sans-serif" font-weight="400" font-size="46" transform="matrix(1 0 0 1 155.248 1526)">Flyers</text><path d="M104 1582.67C104 1576.22 109.224 1571 115.667 1571L392.333 1571C398.776 1571 404 1576.22 404 1582.67L404 1629.33C404 1635.78 398.776 1641 392.333 1641L115.667 1641C109.224 1641 104 1635.78 104 1629.33Z" stroke="#FFDD7D" stroke-width="2.29167" stroke-miterlimit="8" fill="#FFEBB3" fill-rule="evenodd"/><text font-family="Roboto,Roboto_MSFontService,sans-serif" font-weight="400" font-size="46" transform="matrix(1 0 0 1 138.84 1623)">Datasheets</text><path d="M104 1388.67C104 1382.22 109.224 1377 115.667 1377L377.333 1377C383.777 1377 389 1382.22 389 1388.67L389 1435.33C389 1441.78 383.777 1447 377.333 1447L115.667 1447C109.224 1447 104 1441.78 104 1435.33Z" stroke="#FFDD7D" stroke-width="2.29167" stroke-miterlimit="8" fill="#FFEBB3" fill-rule="evenodd"/><text font-family="Roboto,Roboto_MSFontService,sans-serif" font-weight="400" font-size="46" transform="matrix(1 0 0 1 142.732 1429)">Brochures</text><path d="M721 1193.67C721 1187.22 726.223 1182 732.667 1182L956.333 1182C962.777 1182 968 1187.22 968 1193.67L968 1240.33C968 1246.78 962.777 1252 956.333 1252L732.667 1252C726.223 1252 721 1246.78 721 1240.33Z" stroke="#83CBEB" stroke-width="2.29167" stroke-miterlimit="8" fill="#C1E5F5" fill-rule="evenodd"/><text font-family="Roboto,Roboto_MSFontService,sans-serif" font-weight="400" font-size="46" transform="matrix(1 0 0 1 752.693 1233)">Previews</text><path d="M1353 1193.5C1353 1187.15 1358.15 1182 1364.5 1182L1630.5 1182C1636.85 1182 1642 1187.15 1642 1193.5L1642 1239.5C1642 1245.85 1636.85 1251 1630.5 1251L1364.5 1251C1358.15 1251 1353 1245.85 1353 1239.5Z" stroke="#B4E5A2" stroke-width="2.29167" stroke-miterlimit="8" fill="#D9F2D0" fill-rule="evenodd"/><text font-family="Roboto,Roboto_MSFontService,sans-serif" font-weight="400" font-size="46" transform="matrix(1 0 0 1 1388.72 1233)">Workflows</text><path d="M1976 260.667C1976 254.223 1981.22 249 1987.67 249L2205.33 249C2211.78 249 2217 254.223 2217 260.667L2217 307.333C2217 313.777 2211.78 319 2205.33 319L1987.67 319C1981.22 319 1976 313.777 1976 307.333Z" stroke="#83CBEB" stroke-width="2.29167" stroke-miterlimit="8" fill="#C1E5F5" fill-rule="evenodd"/><text font-family="Roboto,Roboto_MSFontService,sans-serif" font-weight="400" font-size="46" transform="matrix(1 0 0 1 2001.43 300)">Mentions</text><path d="M1976 357.667C1976 351.224 1981.22 346 1987.67 346L2253.33 346C2259.78 346 2265 351.224 2265 357.667L2265 404.333C2265 410.776 2259.78 416 2253.33 416L1987.67 416C1981.22 416 1976 410.776 1976 404.333Z" stroke="#83CBEB" stroke-width="2.29167" stroke-miterlimit="8" fill="#C1E5F5" fill-rule="evenodd"/><text font-family="Roboto,Roboto_MSFontService,sans-serif" font-weight="400" font-size="46" transform="matrix(1 0 0 1 2008.55 398)">Comments</text><path d="M1976 454.667C1976 448.224 1981.22 443 1987.67 443L2253.33 443C2259.78 443 2265 448.224 2265 454.667L2265 501.333C2265 507.776 2259.78 513 2253.33 513L1987.67 513C1981.22 513 1976 507.776 1976 501.333Z" stroke="#83CBEB" stroke-width="2.29167" stroke-miterlimit="8" fill="#C1E5F5" fill-rule="evenodd"/><text font-family="Roboto,Roboto_MSFontService,sans-serif" font-weight="400" font-size="46" transform="matrix(1 0 0 1 1997.67 495)">Dashboards</text><path d="M1974 649.5C1974 643.149 1979.15 638 1985.5 638L2279.5 638C2285.85 638 2291 643.149 2291 649.5L2291 695.5C2291 701.851 2285.85 707 2279.5 707L1985.5 707C1979.15 707 1974 701.851 1974 695.5Z" stroke="#83CBEB" stroke-width="2.29167" stroke-miterlimit="8" fill="#C1E5F5" fill-rule="evenodd"/><text font-family="Roboto,Roboto_MSFontService,sans-serif" font-weight="400" font-size="46" transform="matrix(1 0 0 1 1999.52 689)">Assignments</text><path d="M1978 552.667C1978 546.223 1983.22 541 1989.67 541L2318.33 541C2324.78 541 2330 546.223 2330 552.667L2330 599.333C2330 605.776 2324.78 611 2318.33 611L1989.67 611C1983.22 611 1978 605.776 1978 599.333Z" stroke="#83CBEB" stroke-width="2.29167" stroke-miterlimit="8" fill="#C1E5F5" fill-rule="evenodd"/><text font-family="Roboto,Roboto_MSFontService,sans-serif" font-weight="400" font-size="46" transform="matrix(1 0 0 1 2014.34 592)">Shared Filters</text><path d="M2303 745.667C2303 739.223 2308.22 734 2314.67 734L2475.33 734C2481.78 734 2487 739.223 2487 745.667L2487 792.333C2487 798.777 2481.78 804 2475.33 804L2314.67 804C2308.22 804 2303 798.777 2303 792.333Z" stroke="#B4E5A2" stroke-width="2.29167" stroke-miterlimit="8" fill="#D9F2D0" fill-rule="evenodd"/><text font-family="Roboto,Roboto_MSFontService,sans-serif" font-weight="400" font-size="46" transform="matrix(1 0 0 1 2333.71 785)">Tasks</text><path d="M2243 259.667C2243 253.223 2248.22 248 2254.67 248L2472.33 248C2478.78 248 2484 253.223 2484 259.667L2484 306.333C2484 312.777 2478.78 318 2472.33 318L2254.67 318C2248.22 318 2243 312.777 2243 306.333Z" stroke="#83CBEB" stroke-width="2.29167" stroke-miterlimit="8" fill="#C1E5F5" fill-rule="evenodd"/><text font-family="Roboto,Roboto_MSFontService,sans-serif" font-weight="400" font-size="46" transform="matrix(1 0 0 1 2265.58 300)">Following</text><path d="M721 1290.67C721 1284.22 726.223 1279 732.667 1279L1065.33 1279C1071.78 1279 1077 1284.22 1077 1290.67L1077 1337.33C1077 1343.78 1071.78 1349 1065.33 1349L732.667 1349C726.223 1349 721 1343.78 721 1337.33Z" stroke="#83CBEB" stroke-width="2.29167" stroke-miterlimit="8" fill="#C1E5F5" fill-rule="evenodd"/><text font-family="Roboto,Roboto_MSFontService,sans-serif" font-weight="400" font-size="46" transform="matrix(1 0 0 1 746.1 1331)">Storable Filters</text><path d="M721 1387.67C721 1381.22 726.223 1376 732.667 1376L947.333 1376C953.777 1376 959 1381.22 959 1387.67L959 1434.33C959 1440.78 953.777 1446 947.333 1446L732.667 1446C726.223 1446 721 1440.78 721 1434.33Z" stroke="#83CBEB" stroke-width="2.29167" stroke-miterlimit="8" fill="#C1E5F5" fill-rule="evenodd"/><text font-family="Roboto,Roboto_MSFontService,sans-serif" font-weight="400" font-size="46" transform="matrix(1 0 0 1 751.666 1428)">Bulk Edit</text><path d="M721 1485.67C721 1479.22 726.223 1474 732.667 1474L936.333 1474C942.777 1474 948 1479.22 948 1485.67L948 1532.33C948 1538.78 942.777 1544 936.333 1544L732.667 1544C726.223 1544 721 1538.78 721 1532.33Z" stroke="#83CBEB" stroke-width="2.29167" stroke-miterlimit="8" fill="#C1E5F5" fill-rule="evenodd"/><text font-family="Roboto,Roboto_MSFontService,sans-serif" font-weight="400" font-size="46" transform="matrix(1 0 0 1 740.542 1525)">Favorites</text><path d="M990 1386.67C990 1380.22 995.223 1375 1001.67 1375L1252.33 1375C1258.78 1375 1264 1380.22 1264 1386.67L1264 1433.33C1264 1439.78 1258.78 1445 1252.33 1445L1001.67 1445C995.223 1445 990 1439.78 990 1433.33Z" stroke="#83CBEB" stroke-width="2.29167" stroke-miterlimit="8" fill="#C1E5F5" fill-rule="evenodd"/><text font-family="Roboto,Roboto_MSFontService,sans-serif" font-weight="400" font-size="46" transform="matrix(1 0 0 1 1010.52 1426)">Bookmarks</text><path d="M721 1582.67C721 1576.22 726.223 1571 732.667 1571L1019.33 1571C1025.78 1571 1031 1576.22 1031 1582.67L1031 1629.33C1031 1635.78 1025.78 1641 1019.33 1641L732.667 1641C726.223 1641 721 1635.78 721 1629.33Z" stroke="#83CBEB" stroke-width="2.29167" stroke-miterlimit="8" fill="#C1E5F5" fill-rule="evenodd"/><text font-family="Roboto,Roboto_MSFontService,sans-serif" font-weight="400" font-size="46" transform="matrix(1 0 0 1 744.966 1622)">Notifications</text><path d="M721 1679.67C721 1673.22 726.223 1668 732.667 1668L909.333 1668C915.776 1668 921 1673.22 921 1679.67L921 1726.33C921 1732.78 915.776 1738 909.333 1738L732.667 1738C726.223 1738 721 1732.78 721 1726.33Z" stroke="#83CBEB" stroke-width="2.29167" stroke-miterlimit="8" fill="#C1E5F5" fill-rule="evenodd"/><text font-family="Roboto,Roboto_MSFontService,sans-serif" font-weight="400" font-size="46" transform="matrix(1 0 0 1 740.189 1720)">Layouts</text><path d="M998 1193.67C998 1187.22 1003.22 1182 1009.67 1182L1275.33 1182C1281.78 1182 1287 1187.22 1287 1193.67L1287 1240.33C1287 1246.78 1281.78 1252 1275.33 1252L1009.67 1252C1003.22 1252 998 1246.78 998 1240.33Z" stroke="#83CBEB" stroke-width="2.29167" stroke-miterlimit="8" fill="#C1E5F5" fill-rule="evenodd"/><text font-family="Roboto,Roboto_MSFontService,sans-serif" font-weight="400" font-size="46" transform="matrix(1 0 0 1 1023.81 1233)">UI Handlers</text><path d="M2294 452.667C2294 446.223 2299.22 441 2305.67 441L2486.33 441C2492.78 441 2498 446.223 2498 452.667L2498 499.333C2498 505.777 2492.78 511 2486.33 511L2305.67 511C2299.22 511 2294 505.777 2294 499.333Z" stroke="#83CBEB" stroke-width="2.29167" stroke-miterlimit="8" fill="#C1E5F5" fill-rule="evenodd"/><text font-family="Roboto,Roboto_MSFontService,sans-serif" font-weight="400" font-size="46" transform="matrix(1 0 0 1 2323.33 493)">History</text><path d="M1682 1486.67C1682 1480.22 1687.22 1475 1693.67 1475L1873.33 1475C1879.78 1475 1885 1480.22 1885 1486.67L1885 1533.33C1885 1539.78 1879.78 1545 1873.33 1545L1693.67 1545C1687.22 1545 1682 1539.78 1682 1533.33Z" stroke="#B4E5A2" stroke-width="2.29167" stroke-miterlimit="8" fill="#D9F2D0" fill-rule="evenodd"/><text font-family="Roboto,Roboto_MSFontService,sans-serif" font-weight="400" font-size="46" transform="matrix(1 0 0 1 1706.36 1526)">Action</text><text font-family="Roboto,Roboto_MSFontService,sans-serif" font-weight="400" font-size="46" transform="matrix(1 0 0 1 1837.55 1526)">s</text><path d="M1354 1387.67C1354 1381.22 1359.22 1376 1365.67 1376L1594.33 1376C1600.78 1376 1606 1381.22 1606 1387.67L1606 1434.33C1606 1440.78 1600.78 1446 1594.33 1446L1365.67 1446C1359.22 1446 1354 1440.78 1354 1434.33Z" stroke="#83CBEB" stroke-width="2.29167" stroke-miterlimit="8" fill="#C1E5F5" fill-rule="evenodd"/><text font-family="Roboto,Roboto_MSFontService,sans-serif" font-weight="400" font-size="46" transform="matrix(1 0 0 1 1373.34 1428)">Processes</text><path d="M1354 1485.67C1354 1479.22 1359.22 1474 1365.67 1474L1641.33 1474C1647.78 1474 1653 1479.22 1653 1485.67L1653 1532.33C1653 1538.78 1647.78 1544 1641.33 1544L1365.67 1544C1359.22 1544 1354 1538.78 1354 1532.33Z" stroke="#F7CEBB" stroke-width="2.29167" stroke-miterlimit="8" fill="#FAE1D6" fill-rule="evenodd"/><text font-family="Roboto,Roboto_MSFontService,sans-serif" font-weight="400" font-size="46" transform="matrix(1 0 0 1 1370.68 1525)">Action Types</text><path d="M1353 1289.67C1353 1283.22 1358.22 1278 1364.67 1278L1711.33 1278C1717.78 1278 1723 1283.22 1723 1289.67L1723 1336.33C1723 1342.78 1717.78 1348 1711.33 1348L1364.67 1348C1358.22 1348 1353 1342.78 1353 1336.33Z" stroke="#B4E5A2" stroke-width="2.29167" stroke-miterlimit="8" fill="#D9F2D0" fill-rule="evenodd"/><text font-family="Roboto,Roboto_MSFontService,sans-serif" font-weight="400" font-size="46" transform="matrix(1 0 0 1 1373.98 1330)">Validation Rules</text><path d="M1354 1582.67C1354 1576.22 1359.22 1571 1365.67 1571L1678.33 1571C1684.78 1571 1690 1576.22 1690 1582.67L1690 1629.33C1690 1635.78 1684.78 1641 1678.33 1641L1365.67 1641C1359.22 1641 1354 1635.78 1354 1629.33Z" stroke="#B4E5A2" stroke-width="2.29167" stroke-miterlimit="8" fill="#D9F2D0" fill-rule="evenodd"/><text font-family="Roboto,Roboto_MSFontService,sans-serif" font-weight="400" font-size="46" transform="matrix(1 0 0 1 1371.02 1622)">Quality Checks</text><path d="M1671 1193.5C1671 1187.15 1676.15 1182 1682.5 1182L1765.5 1182C1771.85 1182 1777 1187.15 1777 1193.5L1777 1239.5C1777 1245.85 1771.85 1251 1765.5 1251L1682.5 1251C1676.15 1251 1671 1245.85 1671 1239.5Z" stroke="#B4E5A2" stroke-width="2.29167" stroke-miterlimit="8" fill="#D9F2D0" fill-rule="evenodd"/><text font-family="Roboto,Roboto_MSFontService,sans-serif" font-weight="400" font-size="46" transform="matrix(1 0 0 1 1702.61 1233)">AI</text><path d="M1354 1679.67C1354 1673.22 1359.22 1668 1365.67 1668L1742.33 1668C1748.78 1668 1754 1673.22 1754 1679.67L1754 1726.33C1754 1732.78 1748.78 1738 1742.33 1738L1365.67 1738C1359.22 1738 1354 1732.78 1354 1726.33Z" stroke="#83CBEB" stroke-width="2.29167" stroke-miterlimit="8" fill="#C1E5F5" fill-rule="evenodd"/><text font-family="Roboto,Roboto_MSFontService,sans-serif" font-weight="400" font-size="46" transform="matrix(1 0 0 1 1395.19 1720)">1</text><text font-family="Roboto,Roboto_MSFontService,sans-serif" font-weight="400" font-size="46" transform="matrix(1 0 0 1 1420.97 1720)">-</text><text font-family="Roboto,Roboto_MSFontService,sans-serif" font-weight="400" font-size="46" transform="matrix(1 0 0 1 1433.58 1720)">Click Updates</text><path d="M1974 1193.5C1974 1187.15 1979.15 1182 1985.5 1182L2135.5 1182C2141.85 1182 2147 1187.15 2147 1193.5L2147 1239.5C2147 1245.85 2141.85 1251 2135.5 1251L1985.5 1251C1979.15 1251 1974 1245.85 1974 1239.5Z" stroke="#83CBEB" stroke-width="2.29167" stroke-miterlimit="8" fill="#C1E5F5" fill-rule="evenodd"/><text font-family="Roboto,Roboto_MSFontService,sans-serif" font-weight="400" font-size="46" transform="matrix(1 0 0 1 2002.17 1233)">Users</text><path d="M1974 1387.67C1974 1381.22 1979.22 1376 1985.67 1376L2163.33 1376C2169.78 1376 2175 1381.22 2175 1387.67L2175 1434.33C2175 1440.78 2169.78 1446 2163.33 1446L1985.67 1446C1979.22 1446 1974 1440.78 1974 1434.33Z" stroke="#83CBEB" stroke-width="2.29167" stroke-miterlimit="8" fill="#C1E5F5" fill-rule="evenodd"/><text font-family="Roboto,Roboto_MSFontService,sans-serif" font-weight="400" font-size="46" transform="matrix(1 0 0 1 2000.88 1428)">Groups</text><path d="M1974 1290.67C1974 1284.22 1979.22 1279 1985.67 1279L2163.33 1279C2169.78 1279 2175 1284.22 2175 1290.67L2175 1337.33C2175 1343.78 2169.78 1349 2163.33 1349L1985.67 1349C1979.22 1349 1974 1343.78 1974 1337.33Z" stroke="#83CBEB" stroke-width="2.29167" stroke-miterlimit="8" fill="#C1E5F5" fill-rule="evenodd"/><text font-family="Roboto,Roboto_MSFontService,sans-serif" font-weight="400" font-size="46" transform="matrix(1 0 0 1 2018.07 1331)">Roles</text><path d="M1974 1582.67C1974 1576.22 1979.22 1571 1985.67 1571L2339.33 1571C2345.78 1571 2351 1576.22 2351 1582.67L2351 1629.33C2351 1635.78 2345.78 1641 2339.33 1641L1985.67 1641C1979.22 1641 1974 1635.78 1974 1629.33Z" stroke="#83CBEB" stroke-width="2.29167" stroke-miterlimit="8" fill="#C1E5F5" fill-rule="evenodd"/><text font-family="Roboto,Roboto_MSFontService,sans-serif" font-weight="400" font-size="46" transform="matrix(1 0 0 1 2005.14 1622)">Access Queries</text><path d="M1974 1679.67C1974 1673.22 1979.22 1668 1985.67 1668L2339.33 1668C2345.78 1668 2351 1673.22 2351 1679.67L2351 1726.33C2351 1732.78 2345.78 1738 2339.33 1738L1985.67 1738C1979.22 1738 1974 1732.78 1974 1726.33Z" stroke="#83CBEB" stroke-width="2.29167" stroke-miterlimit="8" fill="#C1E5F5" fill-rule="evenodd"/><text font-family="Roboto,Roboto_MSFontService,sans-serif" font-weight="400" font-size="46" transform="matrix(1 0 0 1 2000.27 1720)">Field</text><text font-family="Roboto,Roboto_MSFontService,sans-serif" font-weight="400" font-size="46" transform="matrix(1 0 0 1 2097.09 1720)">-</text><text font-family="Roboto,Roboto_MSFontService,sans-serif" font-weight="400" font-size="46" transform="matrix(1 0 0 1 2109.7 1720)">level Rules</text><path d="M1974 1485.67C1974 1479.22 1979.22 1474 1985.67 1474L2251.33 1474C2257.78 1474 2263 1479.22 2263 1485.67L2263 1532.33C2263 1538.78 2257.78 1544 2251.33 1544L1985.67 1544C1979.22 1544 1974 1538.78 1974 1532.33Z" stroke="#83CBEB" stroke-width="2.29167" stroke-miterlimit="8" fill="#C1E5F5" fill-rule="evenodd"/><text font-family="Roboto,Roboto_MSFontService,sans-serif" font-weight="400" font-size="46" transform="matrix(1 0 0 1 1996.81 1525)">Action Logs</text><path d="M104 1677.67C104 1671.22 109.224 1666 115.667 1666L496.333 1666C502.777 1666 508 1671.22 508 1677.67L508 1724.33C508 1730.78 502.777 1736 496.333 1736L115.667 1736C109.224 1736 104 1730.78 104 1724.33Z" stroke="#B4E5A2" stroke-width="2.29167" stroke-miterlimit="8" fill="#D9F2D0" fill-rule="evenodd"/><text font-family="Roboto,Roboto_MSFontService,sans-serif" font-weight="400" font-size="46" transform="matrix(1 0 0 1 131.105 1718)">Office Templates</text><path d="M940 1677.67C940 1671.22 945.224 1666 951.667 1666L1217.33 1666C1223.78 1666 1229 1671.22 1229 1677.67L1229 1724.33C1229 1730.78 1223.78 1736 1217.33 1736L951.667 1736C945.224 1736 940 1730.78 940 1724.33Z" stroke="#83CBEB" stroke-width="2.29167" stroke-miterlimit="8" fill="#C1E5F5" fill-rule="evenodd"/><text font-family="Roboto,Roboto_MSFontService,sans-serif" font-weight="400" font-size="46" transform="matrix(1 0 0 1 967.688 1718)">Responsive</text><path d="M2182 887.5C2182 881.149 2187.15 876 2193.5 876L2406.5 876C2412.85 876 2418 881.149 2418 887.5L2418 933.5C2418 939.851 2412.85 945 2406.5 945L2193.5 945C2187.15 945 2182 939.851 2182 933.5Z" stroke="#A6CAEC" stroke-width="2.29167" stroke-miterlimit="8" fill="#FFFFFF" fill-rule="evenodd"/><text font-family="Roboto,Roboto_MSFontService,sans-serif" font-weight="400" font-size="46" transform="matrix(1 0 0 1 2215.53 927)">Modular</text><path d="M1057 1582.67C1057 1576.22 1062.22 1571 1068.67 1571L1259.33 1571C1265.78 1571 1271 1576.22 1271 1582.67L1271 1629.33C1271 1635.78 1265.78 1641 1259.33 1641L1068.67 1641C1062.22 1641 1057 1635.78 1057 1629.33Z" stroke="#A6CAEC" stroke-width="2.29167" stroke-miterlimit="8" fill="#DCEAF7" fill-rule="evenodd"/><text font-family="Roboto,Roboto_MSFontService,sans-serif" font-weight="400" font-size="46" transform="matrix(1 0 0 1 1081.81 1622)">Themes</text><g><g><g><path d="M101 862.179 201 862.179 201 962.179 101 962.179Z" fill="#FFFFFF"/><path d="M130.911 962.185 187.974 962.185 179.301 939.623 139.111 939.623Z" fill="#C80B19"/><path d="M145.353 922.679 172.788 922.679 158.932 885.365Z" fill="#C80B19"/><path d="M148.333 862.179 101 862.179 101 962.185 109.38 962.185Z" fill="#C80B19"/><path d="M201 939.569 201 862.179 170.015 862.179Z" fill="#C80B19"/></g></g></g><path d="M425 648.667C425 642.223 430.223 637 436.667 637L636.333 637C642.777 637 648 642.223 648 648.667L648 695.333C648 701.776 642.777 707 636.333 707L436.667 707C430.223 707 425 701.776 425 695.333Z" stroke="#83CBEB" stroke-width="2.29167" stroke-miterlimit="8" fill="#C1E5F5" fill-rule="evenodd"/><text font-family="Roboto,Roboto_MSFontService,sans-serif" font-weight="400" font-size="46" transform="matrix(1 0 0 1 444.795 689)">Any Data</text><path d="M2175 1193.5C2175 1187.15 2180.15 1182 2186.5 1182L2431.5 1182C2437.85 1182 2443 1187.15 2443 1193.5L2443 1239.5C2443 1245.85 2437.85 1251 2431.5 1251L2186.5 1251C2180.15 1251 2175 1245.85 2175 1239.5Z" stroke="#83CBEB" stroke-width="2.29167" stroke-miterlimit="8" fill="#C1E5F5" fill-rule="evenodd"/><text font-family="Roboto,Roboto_MSFontService,sans-serif" font-weight="400" font-size="46" transform="matrix(1 0 0 1 2195.01 1233)">Activations</text><path d="M908 455.5C908 449.149 913.149 444 919.5 444L1281.5 444C1287.85 444 1293 449.149 1293 455.5L1293 501.499C1293 507.851 1287.85 513 1281.5 513L919.5 513C913.149 513 908 507.851 908 501.499Z" stroke="#FFDD7D" stroke-width="2.29167" stroke-miterlimit="8" fill="#FFEBB3" fill-rule="evenodd"/><text font-family="Roboto,Roboto_MSFontService,sans-serif" font-weight="400" font-size="46" transform="matrix(1 0 0 1 929.93 495)">Business Central</text><path d="M908 746.667C908 740.223 913.223 735 919.667 735L1111.33 735C1117.78 735 1123 740.223 1123 746.667L1123 793.333C1123 799.777 1117.78 805 1111.33 805L919.667 805C913.223 805 908 799.777 908 793.333Z" stroke="#FFDD7D" stroke-width="2.29167" stroke-miterlimit="8" fill="#FFEBB3" fill-rule="evenodd"/><text font-family="Roboto,Roboto_MSFontService,sans-serif" font-weight="400" font-size="46" transform="matrix(1 0 0 1 924.592 786)">Magento</text><path d="M2291 358.667C2291 352.223 2296.22 347 2302.67 347L2516.33 347C2522.78 347 2528 352.223 2528 358.667L2528 405.333C2528 411.776 2522.78 417 2516.33 417L2302.67 417C2296.22 417 2291 411.776 2291 405.333Z" stroke="#83CBEB" stroke-width="2.29167" stroke-miterlimit="8" fill="#C1E5F5" fill-rule="evenodd"/><text font-family="Roboto,Roboto_MSFontService,sans-serif" font-weight="400" font-size="46" transform="matrix(1 0 0 1 2332.46 398)">Sharing</text><path d="M1571 887.5C1571 881.149 1576.15 876 1582.5 876L1854.5 876C1860.85 876 1866 881.149 1866 887.5L1866 933.5C1866 939.851 1860.85 945 1854.5 945L1582.5 945C1576.15 945 1571 939.851 1571 933.5Z" stroke="#A6CAEC" stroke-width="2.29167" stroke-miterlimit="8" fill="#FFFFFF" fill-rule="evenodd"/><text font-family="Roboto,Roboto_MSFontService,sans-serif" font-weight="400" font-size="46" transform="matrix(1 0 0 1 1641.09 927)">Flexible</text><path d="M1897 887.5C1897 881.149 1902.15 876 1908.5 876L2138.5 876C2144.85 876 2150 881.149 2150 887.5L2150 933.5C2150 939.851 2144.85 945 2138.5 945L1908.5 945C1902.15 945 1897 939.851 1897 933.5Z" stroke="#A6CAEC" stroke-width="2.29167" stroke-miterlimit="8" fill="#FFFFFF" fill-rule="evenodd"/><text font-family="Roboto,Roboto_MSFontService,sans-serif" font-weight="400" font-size="46" transform="matrix(1 0 0 1 1937.15 927)">Scalable</text><path d="M349 1830.5C349 1824.15 354.149 1819 360.5 1819L406.5 1819C412.851 1819 418 1824.15 418 1830.5L418 1877.5C418 1883.85 412.851 1889 406.5 1889L360.5 1889C354.149 1889 349 1883.85 349 1877.5Z" stroke="#83CBEB" stroke-width="2.29167" stroke-miterlimit="8" fill="#C1E5F5" fill-rule="evenodd"/><path d="M842 1830.5C842 1824.15 847.149 1819 853.5 1819L899.5 1819C905.851 1819 911 1824.15 911 1830.5L911 1877.5C911 1883.85 905.851 1889 899.5 1889L853.5 1889C847.149 1889 842 1883.85 842 1877.5Z" stroke="#B4E5A2" stroke-width="2.29167" stroke-miterlimit="8" fill="#D9F2D0" fill-rule="evenodd"/><path d="M1343 1830.5C1343 1824.15 1348.15 1819 1354.5 1819L1400.5 1819C1406.85 1819 1412 1824.15 1412 1830.5L1412 1877.5C1412 1883.85 1406.85 1889 1400.5 1889L1354.5 1889C1348.15 1889 1343 1883.85 1343 1877.5Z" stroke="#F7CEBB" stroke-width="2.29167" stroke-miterlimit="8" fill="#FAE1D6" fill-rule="evenodd"/><path d="M1956 1830.5C1956 1824.15 1961.15 1819 1967.5 1819L2013.5 1819C2019.85 1819 2025 1824.15 2025 1830.5L2025 1877.5C2025 1883.85 2019.85 1889 2013.5 1889L1967.5 1889C1961.15 1889 1956 1883.85 1956 1877.5Z" stroke="#FFDD7D" stroke-width="2.29167" stroke-miterlimit="8" fill="#FFEBB3" fill-rule="evenodd"/><path d="M1974 745.667C1974 739.223 1979.22 734 1985.67 734L2261.33 734C2267.78 734 2273 739.223 2273 745.667L2273 792.333C2273 798.776 2267.78 804 2261.33 804L1985.67 804C1979.22 804 1974 798.776 1974 792.333Z" stroke="#83CBEB" stroke-width="2.29167" stroke-miterlimit="8" fill="#C1E5F5" fill-rule="evenodd"/><text font-family="Roboto,Roboto_MSFontService,sans-serif" font-weight="400" font-size="46" transform="matrix(1 0 0 1 2015.29 785)">Ownership</text><path d="M2320 646.667C2320 640.223 2325.22 635 2331.67 635L2502.33 635C2508.78 635 2514 640.223 2514 646.667L2514 693.333C2514 699.777 2508.78 705 2502.33 705L2331.67 705C2325.22 705 2320 699.777 2320 693.333Z" stroke="#B4E5A2" stroke-width="2.29167" stroke-miterlimit="8" fill="#D9F2D0" fill-rule="evenodd"/><text font-family="Roboto,Roboto_MSFontService,sans-serif" font-weight="400" font-size="46" transform="matrix(1 0 0 1 2338.21 686)">Reports</text><path d="M981 1485.67C981 1479.22 986.224 1474 992.667 1474L1259.33 1474C1265.78 1474 1271 1479.22 1271 1485.67L1271 1532.33C1271 1538.78 1265.78 1544 1259.33 1544L992.667 1544C986.224 1544 981 1538.78 981 1532.33Z" stroke="#83CBEB" stroke-width="2.29167" stroke-miterlimit="8" fill="#C1E5F5" fill-rule="evenodd"/><text font-family="Roboto,Roboto_MSFontService,sans-serif" font-weight="400" font-size="46" transform="matrix(1 0 0 1 1027.19 1525)">Inline Edit</text><path d="M1772 748.667C1772 742.223 1777.22 737 1783.67 737L1883.33 737C1889.78 737 1895 742.223 1895 748.667L1895 795.333C1895 801.777 1889.78 807 1883.33 807L1783.67 807C1777.22 807 1772 801.777 1772 795.333Z" stroke="#B4E5A2" stroke-width="2.29167" stroke-miterlimit="8" fill="#D9F2D0" fill-rule="evenodd"/><text font-family="Roboto,Roboto_MSFontService,sans-serif" font-weight="400" font-size="46" transform="matrix(1 0 0 1 1792.91 788)">FTP</text><text font-family="Roboto,Roboto_MSFontService,sans-serif" font-style="italic" font-weight="400" font-size="46" transform="matrix(1 0 0 1 245.192 927)">Feature Overview</text><text font-family="Roboto,Roboto_MSFontService,sans-serif" font-weight="400" font-size="41" transform="matrix(1 0 0 1 935.81 1865)">Paid Functionality</text><text font-family="Roboto,Roboto_MSFontService,sans-serif" font-weight="400" font-size="41" transform="matrix(1 0 0 1 1436.76 1865)">Partly Paid Functionality</text><text font-family="Roboto,Roboto_MSFontService,sans-serif" font-weight="400" font-size="41" transform="matrix(1 0 0 1 442.733 1865)">Free Functionality</text><text font-family="Roboto,Roboto_MSFontService,sans-serif" font-weight="400" font-size="41" transform="matrix(1 0 0 1 2049.53 1865)">Paid work</text></g></svg>