<?xml version="1.0" encoding="UTF-8" standalone="no"?>
<!-- Created with Inkscape (http://www.inkscape.org/) -->

<svg
   xml:space="preserve"
   id="svg5"
   version="1.1"
   viewBox="0 0 151.78987 27"
   height="27mm"
   width="151.78987mm"
   xmlns="http://www.w3.org/2000/svg"
   xmlns:svg="http://www.w3.org/2000/svg"><defs
     id="defs2" /><style
     type="text/css"
     id="style9">
	.st0{fill:#FFFFFF;}
	.st1{fill:#C80B19;}
</style><g
     id="layer2"
     transform="translate(-23.320221,-28.700961)"><path
       style="font-size:32.4556px;font-family:Inter;-inkscape-font-specification:'Inter, @wght=750';font-variation-settings:'wght' 750;stroke-width:0.264583"
       d="m 65.918215,36.520406 v 3.918645 H 55.003637 V 36.520406 Z M 57.3894,32.279049 h 5.26712 v 16.435258 q 0,0.610848 0.184407,0.956611 0.195932,0.334237 0.541695,0.484068 0.345762,0.138305 0.818305,0.138305 0.334237,0 0.691525,-0.05763 0.357289,-0.06915 0.541696,-0.115255 l 0.806779,3.861018 q -0.380339,0.12678 -1.08339,0.288136 -0.691525,0.161356 -1.682712,0.195932 -1.878644,0.08068 -3.25017,-0.461017 Q 58.853129,53.451258 58.115502,52.28719 57.377874,51.123121 57.3894,49.359731 Z M 68.960933,54.223461 V 36.520406 h 5.105764 v 3.157967 h 0.184407 q 0.484068,-1.705763 1.602034,-2.547119 1.117967,-0.852882 2.593221,-0.852882 0.380339,0 0.795255,0.0461 0.42644,0.0461 0.760678,0.138305 v 4.621696 q -0.368814,-0.115254 -1.002712,-0.195932 -0.633899,-0.08068 -1.141018,-0.08068 -1.037288,0 -1.867119,0.461017 -0.818305,0.449492 -1.290847,1.267797 -0.472543,0.80678 -0.472543,1.867119 v 9.819663 z m 20.711157,0.334238 q -2.731526,0 -4.713899,-1.141018 -1.970848,-1.141017 -3.042713,-3.192543 -1.071864,-2.063051 -1.071864,-4.794577 0,-2.731526 1.071864,-4.783052 1.071865,-2.063051 3.042713,-3.204069 1.982373,-1.152542 4.713899,-1.152542 2.731526,0 4.702374,1.152542 1.982374,1.141018 3.054238,3.204069 1.071865,2.051526 1.071865,4.783052 0,2.731526 -1.071865,4.794577 -1.071864,2.051526 -3.054238,3.192543 -1.970848,1.141018 -4.702374,1.141018 z m 0.03458,-4.022374 q 1.106441,0 1.867119,-0.65695 0.772203,-0.656949 1.164068,-1.809492 0.391864,-1.164068 0.391864,-2.673898 0,-1.509831 -0.391864,-2.662374 -0.391865,-1.152543 -1.164068,-1.809492 -0.760678,-0.668475 -1.867119,-0.668475 -1.141018,0 -1.924747,0.668475 -0.783729,0.656949 -1.175593,1.809492 -0.391865,1.152543 -0.391865,2.662374 0,1.50983 0.391865,2.673898 0.391864,1.152543 1.175593,1.809492 0.783729,0.65695 1.924747,0.65695 z m 33.02037,-11.502376 h -5.41695 q -0.11526,-0.945085 -0.51865,-1.682712 -0.39186,-0.737627 -1.02576,-1.256272 -0.62237,-0.530169 -1.4522,-0.806779 -0.82983,-0.288136 -1.83255,-0.288136 -1.77491,0 -3.07728,0.875932 -1.29085,0.875933 -1.9939,2.535594 -0.70305,1.659662 -0.70305,4.010849 0,2.431864 0.70305,4.091526 0.71457,1.648136 2.00542,2.489492 1.30237,0.841356 3.03119,0.841356 0.97966,0 1.79796,-0.253559 0.81831,-0.25356 1.44068,-0.749153 0.6339,-0.495593 1.04882,-1.198644 0.42644,-0.703051 0.57627,-1.602035 l 5.41695,0.03458 q -0.18441,1.590509 -0.94509,3.111865 -0.76067,1.509831 -2.07457,2.72 -1.3139,1.21017 -3.15797,1.924747 -1.84407,0.714576 -4.19526,0.714576 -3.18101,0 -5.69356,-1.417627 -2.50101,-1.417628 -3.95322,-4.126103 -1.4522,-2.720001 -1.4522,-6.581018 0,-3.884069 1.46373,-6.581019 1.47525,-2.708475 3.9878,-4.126103 2.51254,-1.417627 5.64745,-1.417627 2.09763,0 3.88407,0.587797 1.78644,0.576271 3.15797,1.694237 1.38305,1.117967 2.23593,2.743052 0.86441,1.61356 1.09492,3.711187 z m 11.49084,15.52475 q -2.73152,0 -4.7139,-1.141018 -1.97084,-1.141017 -3.04271,-3.192543 -1.07186,-2.063051 -1.07186,-4.794577 0,-2.731526 1.07186,-4.783052 1.07187,-2.063051 3.04271,-3.204069 1.98238,-1.152542 4.7139,-1.152542 2.73153,0 4.70238,1.152542 1.98237,1.141018 3.05424,3.204069 1.07186,2.051526 1.07186,4.783052 0,2.731526 -1.07186,4.794577 -1.07187,2.051526 -3.05424,3.192543 -1.97085,1.141018 -4.70238,1.141018 z m 0.0346,-4.022374 q 1.10644,0 1.86712,-0.65695 0.7722,-0.656949 1.16407,-1.809492 0.39186,-1.164068 0.39186,-2.673898 0,-1.509831 -0.39186,-2.662374 -0.39187,-1.152543 -1.16407,-1.809492 -0.76068,-0.668475 -1.86712,-0.668475 -1.14102,0 -1.92475,0.668475 -0.78373,0.656949 -1.17559,1.809492 -0.39186,1.152543 -0.39186,2.662374 0,1.50983 0.39186,2.673898 0.39186,1.152543 1.17559,1.809492 0.78373,0.65695 1.92475,0.65695 z m 11.84816,3.688136 V 36.520406 h 5.10577 v 3.157967 h 0.1844 q 0.48407,-1.705763 1.60204,-2.547119 1.11796,-0.852882 2.59322,-0.852882 0.38034,0 0.79525,0.0461 0.42644,0.0461 0.76068,0.138305 v 4.621696 q -0.36881,-0.115254 -1.00271,-0.195932 -0.6339,-0.08068 -1.14102,-0.08068 -1.03729,0 -1.86712,0.461017 -0.8183,0.449492 -1.29085,1.267797 -0.47254,0.80678 -0.47254,1.867119 v 9.819663 z m 20.74573,0.334238 q -2.75458,0 -4.73695,-1.094916 -1.98238,-1.106441 -3.05424,-3.146441 -1.07187,-2.051526 -1.07187,-4.875256 0,-2.731526 1.07187,-4.783052 1.07186,-2.063051 3.01966,-3.215594 1.95932,-1.152542 4.59865,-1.152542 1.80949,0 3.3539,0.576271 1.5444,0.576271 2.68542,1.717289 1.14102,1.129491 1.76339,2.812204 0.6339,1.682712 0.6339,3.907119 v 1.383051 h -15.15594 v -3.157967 h 10.23458 q -0.0115,-0.991186 -0.44949,-1.751864 -0.43797,-0.760679 -1.21017,-1.187119 -0.76068,-0.437966 -1.76339,-0.437966 -1.02576,0 -1.83254,0.472542 -0.80678,0.472542 -1.2678,1.256271 -0.46102,0.783729 -0.47254,1.763391 v 3.12339 q 0,1.198645 0.44949,2.086102 0.46102,0.875933 1.30237,1.360001 0.84136,0.484068 2.00543,0.484068 0.7722,0 1.41762,-0.218983 0.64543,-0.218984 1.10644,-0.645424 0.47255,-0.437967 0.70306,-1.06034 l 4.8522,0.218984 q -0.33424,1.694237 -1.41763,2.950509 -1.07186,1.244746 -2.78915,1.936271 -1.71729,0.680001 -3.97627,0.680001 z"
       id="text514"
       aria-label="troCore" /></g><g
     id="layer1"
     transform="matrix(0.49576271,0,0,0.49576271,6.6302125,-30.298287)"><g
       id="g508"
       transform="matrix(0.29558501,0,0,0.29556897,-13.373763,61.016954)"><rect
         x="0"
         y="0.33000001"
         class="st0"
         width="184.25"
         height="184.25"
         id="rect484" /><g
         id="g494">
	<polygon
   class="st1"
   points="70.22,143.02 55.11,184.59 160.25,184.59 144.27,143.02 "
   id="polygon486" />
	<polygon
   class="st1"
   points="132.27,111.8 106.74,43.05 81.72,111.8 "
   id="polygon488" />
	<polygon
   class="st1"
   points="15.44,184.59 87.21,0.33 0,0.33 0,184.59 "
   id="polygon490" />
	<polygon
   class="st1"
   points="184.25,0.33 127.16,0.33 184.25,142.92 "
   id="polygon492" />
</g></g></g><style
     type="text/css"
     id="style482">
	.st0{fill:#FFFFFF;}
	.st1{fill:#C80B19;}
</style></svg>
