<svg width="2498" height="1734" xmlns="http://www.w3.org/2000/svg" xmlns:xlink="http://www.w3.org/1999/xlink" xml:space="preserve" overflow="hidden"><g transform="translate(-115 -160)"><rect x="116.5" y="905.5" width="2494" height="134" stroke="#DCEAF7" stroke-width="3.4375" stroke-miterlimit="8" fill="#DCEAF7"/><rect x="116.5" y="161.5" width="625" height="744" stroke="#DCEAF7" stroke-width="3.4375" stroke-miterlimit="8" fill="none"/><text fill="#215F9A" font-family="Aptos Light,Aptos Light_MSFontService,sans-serif" font-weight="700" font-size="46" transform="matrix(1 0 0 1 283.747 239)">Data Modelling</text><path d="M523 400.667C523 394.224 528.223 389 534.667 389L708.333 389C714.777 389 720 394.224 720 400.667L720 447.333C720 453.776 714.777 459 708.333 459L534.667 459C528.223 459 523 453.776 523 447.333Z" fill="#DCEAF7" fill-rule="evenodd"/><text font-family="Aptos Light,Aptos Light_MSFontService,sans-serif" font-weight="300" font-size="41" transform="matrix(1 0 0 1 557.36 437)">Entities</text><path d="M468 497.667C468 491.223 473.223 486 479.667 486L679.333 486C685.777 486 691 491.223 691 497.667L691 544.333C691 550.776 685.777 556 679.333 556L479.667 556C473.223 556 468 550.776 468 544.333Z" fill="#DCEAF7" fill-rule="evenodd"/><text font-family="Aptos Light,Aptos Light_MSFontService,sans-serif" font-weight="300" font-size="41" transform="matrix(1 0 0 1 497.842 534)">Relations</text><path d="M472 594.667C472 588.223 477.223 583 483.667 583L683.333 583C689.777 583 695 588.223 695 594.667L695 641.333C695 647.776 689.777 653 683.333 653L483.667 653C477.223 653 472 647.776 472 641.333Z" fill="#DCEAF7" fill-rule="evenodd"/><text font-family="Aptos Light,Aptos Light_MSFontService,sans-serif" font-weight="300" font-size="41" transform="matrix(1 0 0 1 532.271 632)">Fields</text><path d="M449 303.667C449 297.223 454.223 292 460.667 292L704.333 292C710.777 292 716 297.223 716 303.667L716 350.333C716 356.776 710.777 362 704.333 362L460.667 362C454.223 362 449 356.776 449 350.333Z" fill="#A6CAEC" fill-rule="evenodd"/><text font-family="Aptos Light,Aptos Light_MSFontService,sans-serif" font-weight="300" font-size="41" transform="matrix(1 0 0 1 486.529 340)">Data Types</text><path d="M147 692.5C147 686.149 152.149 681 158.5 681L435.5 681C441.851 681 447 686.149 447 692.5L447 738.5C447 744.851 441.851 750 435.5 750L158.5 750C152.149 750 147 744.851 147 738.5Z" fill="#DCEAF7" fill-rule="evenodd"/><text font-family="Aptos Light,Aptos Light_MSFontService,sans-serif" font-weight="300" font-size="41" transform="matrix(1 0 0 1 196.707 729)">Hierarchies</text><path d="M147 594.667C147 588.224 152.224 583 158.667 583L435.333 583C441.776 583 447 588.224 447 594.667L447 641.333C447 647.777 441.776 653 435.333 653L158.667 653C152.224 653 147 647.777 147 641.333Z" fill="#DCEAF7" fill-rule="evenodd"/><text font-family="Aptos Light,Aptos Light_MSFontService,sans-serif" font-weight="300" font-size="41" transform="matrix(1 0 0 1 212.462 632)">Attributes</text><path d="M147 400.667C147 394.224 152.224 389 158.667 389L487.333 389C493.777 389 499 394.224 499 400.667L499 447.333C499 453.777 493.777 459 487.333 459L158.667 459C152.224 459 147 453.777 147 447.333Z" fill="#A6CAEC" fill-rule="evenodd"/><text font-family="Aptos Light,Aptos Light_MSFontService,sans-serif" font-weight="300" font-size="41" transform="matrix(1 0 0 1 194.352 437)">Classifications</text><path d="M147 497.667C147 491.224 152.224 486 158.667 486L435.333 486C441.776 486 447 491.224 447 497.667L447 544.333C447 550.777 441.776 556 435.333 556L158.667 556C152.224 556 147 550.777 147 544.333Z" fill="#DCEAF7" fill-rule="evenodd"/><text font-family="Aptos Light,Aptos Light_MSFontService,sans-serif" font-weight="300" font-size="41" transform="matrix(1 0 0 1 192.41 534)">Taxonomies</text><path d="M147 303.667C147 297.223 152.224 292 158.667 292L417.333 292C423.776 292 429 297.223 429 303.667L429 350.333C429 356.776 423.776 362 417.333 362L158.667 362C152.224 362 147 356.776 147 350.333Z" fill="#DCEAF7" fill-rule="evenodd"/><text font-family="Aptos Light,Aptos Light_MSFontService,sans-serif" font-weight="300" font-size="41" transform="matrix(1 0 0 1 189.171 340)">Inheritance</text><path d="M2250 1382.67C2250 1376.22 2255.22 1371 2261.67 1371L2393.33 1371C2399.78 1371 2405 1376.22 2405 1382.67L2405 1429.33C2405 1435.78 2399.78 1441 2393.33 1441L2261.67 1441C2255.22 1441 2250 1435.78 2250 1429.33Z" fill="#4190D7" fill-rule="evenodd"/><text fill="#FFFFFF" font-family="Aptos Light,Aptos Light_MSFontService,sans-serif" font-weight="300" font-size="41" transform="matrix(1 0 0 1 2279.72 1419)">LDAP</text><path d="M2249 1283.67C2249 1277.22 2254.22 1272 2260.67 1272L2450.33 1272C2456.78 1272 2462 1277.22 2462 1283.67L2462 1330.33C2462 1336.78 2456.78 1342 2450.33 1342L2260.67 1342C2254.22 1342 2249 1336.78 2249 1330.33Z" fill="#4190D7" fill-rule="evenodd"/><text fill="#FFFFFF" font-family="Aptos Light,Aptos Light_MSFontService,sans-serif" font-weight="300" font-size="41" transform="matrix(1 0 0 1 2285.62 1320)">Entra ID</text><path d="M768 400.667C768 394.224 773.223 389 779.667 389L1123.33 389C1129.78 389 1135 394.224 1135 400.667L1135 447.333C1135 453.776 1129.78 459 1123.33 459L779.667 459C773.223 459 768 453.776 768 447.333Z" fill="#4190D7" fill-rule="evenodd"/><text fill="#FFFFFF" font-family="Aptos Light,Aptos Light_MSFontService,sans-serif" font-weight="300" font-size="41" transform="matrix(1 0 0 1 818.377 437)">Cloud Storages</text><path d="M770 303.667C770 297.223 775.224 292 781.667 292L1308.33 292C1314.78 292 1320 297.223 1320 303.667L1320 350.333C1320 356.776 1314.78 362 1308.33 362L781.667 362C775.224 362 770 356.776 770 350.333Z" fill="#DCEAF7" fill-rule="evenodd"/><text font-family="Aptos Light,Aptos Light_MSFontService,sans-serif" font-weight="300" font-size="41" transform="matrix(1 0 0 1 828.751 340)">Bidirectional integrations</text><path d="M1257 949.667C1257 943.224 1262.22 938 1268.67 938L1571.33 938C1577.78 938 1583 943.224 1583 949.667L1583 996.333C1583 1002.78 1577.78 1008 1571.33 1008L1268.67 1008C1262.22 1008 1257 1002.78 1257 996.333Z" stroke="#A6CAEC" stroke-width="2.29167" stroke-miterlimit="8" fill="#FFFFFF" fill-rule="evenodd"/><text fill="#163E64" font-family="Aptos Light,Aptos Light_MSFontService,sans-serif" font-weight="700" font-size="46" transform="matrix(1 0 0 1 1294.48 988)">Automatable</text><path d="M768 497.667C768 491.223 773.223 486 779.667 486L913.333 486C919.777 486 925 491.223 925 497.667L925 544.333C925 550.776 919.777 556 913.333 556L779.667 556C773.223 556 768 550.776 768 544.333Z" fill="#A6CAEC" fill-rule="evenodd"/><text font-family="Aptos Light,Aptos Light_MSFontService,sans-serif" font-weight="300" font-size="41" transform="matrix(1 0 0 1 801.217 534)">ERPs</text><path d="M770 594.667C770 588.223 775.223 583 781.667 583L984.333 583C990.776 583 996 588.223 996 594.667L996 641.333C996 647.777 990.776 653 984.333 653L781.667 653C775.223 653 770 647.777 770 641.333Z" fill="#A6CAEC" fill-rule="evenodd"/><text font-family="Aptos Light,Aptos Light_MSFontService,sans-serif" font-weight="300" font-size="41" transform="matrix(1 0 0 1 802.301 632)">Websites</text><path d="M768 692.5C768 686.149 773.149 681 779.5 681L1086.5 681C1092.85 681 1098 686.149 1098 692.5L1098 738.5C1098 744.851 1092.85 750 1086.5 750L779.5 750C773.149 750 768 744.851 768 738.5Z" fill="#A6CAEC" fill-rule="evenodd"/><text font-family="Aptos Light,Aptos Light_MSFontService,sans-serif" font-weight="300" font-size="41" transform="matrix(1 0 0 1 815.18 729)">Marketplaces</text><rect x="741.5" y="161.5" width="623" height="744" stroke="#DCEAF7" stroke-width="3.4375" stroke-miterlimit="8" fill="none"/><text fill="#215F9A" font-family="Aptos Light,Aptos Light_MSFontService,sans-serif" font-weight="700" font-size="46" transform="matrix(1 0 0 1 948.316 239)">Integration</text><rect x="1364.5" y="161.5" width="623" height="744" stroke="#DCEAF7" stroke-width="3.4375" stroke-miterlimit="8" fill="none"/><text fill="#215F9A" font-family="Aptos Light,Aptos Light_MSFontService,sans-serif" font-weight="700" font-size="46" transform="matrix(1 0 0 1 1554.43 239)">Connectivity</text><rect x="1987.5" y="161.5" width="624" height="744" stroke="#DCEAF7" stroke-width="3.4375" stroke-miterlimit="8" fill="none"/><text fill="#215F9A" font-family="Aptos Light,Aptos Light_MSFontService,sans-serif" font-weight="700" font-size="46" transform="matrix(1 0 0 1 2166.85 239)">Collaboration</text><rect x="116.5" y="1040.5" width="625" height="749" stroke="#DCEAF7" stroke-width="3.4375" stroke-miterlimit="8" fill="none"/><text fill="#215F9A" font-family="Aptos Light,Aptos Light_MSFontService,sans-serif" font-weight="700" font-size="46" transform="matrix(1 0 0 1 213.226 1118)">Document Generation</text><rect x="740.5" y="1040.5" width="624" height="749" stroke="#DCEAF7" stroke-width="3.4375" stroke-miterlimit="8" fill="none"/><text fill="#215F9A" font-family="Aptos Light,Aptos Light_MSFontService,sans-serif" font-weight="700" font-size="46" transform="matrix(1 0 0 1 896.041 1118)">User Experience</text><rect x="1364.5" y="1040.5" width="623" height="749" stroke="#DCEAF7" stroke-width="3.4375" stroke-miterlimit="8" fill="none"/><text fill="#215F9A" font-family="Aptos Light,Aptos Light_MSFontService,sans-serif" font-weight="700" font-size="46" transform="matrix(1 0 0 1 1427 1118)">Automation &amp; Intelligence</text><rect x="1987.5" y="1040.5" width="623" height="749" stroke="#DCEAF7" stroke-width="3.4375" stroke-miterlimit="8" fill="none"/><text fill="#215F9A" font-family="Aptos Light,Aptos Light_MSFontService,sans-serif" font-weight="700" font-size="46" transform="matrix(1 0 0 1 2096.6 1118)">Access Management</text><path d="M767 789.667C767 783.223 772.223 778 778.667 778L913.333 778C919.777 778 925 783.223 925 789.667L925 836.333C925 842.777 919.777 848 913.333 848L778.667 848C772.223 848 767 842.777 767 836.333Z" fill="#A6CAEC" fill-rule="evenodd"/><text font-family="Aptos Light,Aptos Light_MSFontService,sans-serif" font-weight="300" font-size="41" transform="matrix(1 0 0 1 811.082 826)">SAP</text><path d="M1022 595.667C1022 589.224 1027.22 584 1033.67 584L1218.33 584C1224.78 584 1230 589.224 1230 595.667L1230 642.333C1230 648.777 1224.78 654 1218.33 654L1033.67 654C1027.22 654 1022 648.777 1022 642.333Z" fill="#A6CAEC" fill-rule="evenodd"/><text font-family="Aptos Light,Aptos Light_MSFontService,sans-serif" font-weight="300" font-size="41" transform="matrix(1 0 0 1 1061.91 632)">Shopify</text><path d="M1397 303.667C1397 297.223 1402.22 292 1408.67 292L1623.33 292C1629.78 292 1635 297.223 1635 303.667L1635 350.333C1635 356.777 1629.78 362 1623.33 362L1408.67 362C1402.22 362 1397 356.777 1397 350.333Z" fill="#DCEAF7" fill-rule="evenodd"/><text font-family="Aptos Light,Aptos Light_MSFontService,sans-serif" font-weight="300" font-size="41" transform="matrix(1 0 0 1 1438.69 340)">REST API</text><path d="M1397 400.667C1397 394.224 1402.22 389 1408.67 389L1709.33 389C1715.78 389 1721 394.224 1721 400.667L1721 447.333C1721 453.777 1715.78 459 1709.33 459L1408.67 459C1402.22 459 1397 453.777 1397 447.333Z" fill="#DCEAF7" fill-rule="evenodd"/><text font-family="Aptos Light,Aptos Light_MSFontService,sans-serif" font-weight="300" font-size="41" transform="matrix(1 0 0 1 1444.17 437)">API Requests</text><path d="M1397 497.667C1397 491.223 1402.22 486 1408.67 486L1709.33 486C1715.78 486 1721 491.223 1721 497.667L1721 544.333C1721 550.776 1715.78 556 1709.33 556L1408.67 556C1402.22 556 1397 550.776 1397 544.333Z" fill="#4190D7" fill-rule="evenodd"/><text fill="#FFFFFF" font-family="Aptos Light,Aptos Light_MSFontService,sans-serif" font-weight="300" font-size="41" transform="matrix(1 0 0 1 1459.64 534)">DB Queries</text><path d="M1397 594.667C1397 588.223 1402.22 583 1408.67 583L1709.33 583C1715.78 583 1721 588.223 1721 594.667L1721 641.333C1721 647.776 1715.78 653 1709.33 653L1408.67 653C1402.22 653 1397 647.776 1397 641.333Z" fill="#DCEAF7" fill-rule="evenodd"/><text font-family="Aptos Light,Aptos Light_MSFontService,sans-serif" font-weight="300" font-size="41" transform="matrix(1 0 0 1 1444.17 632)">Import Feeds</text><path d="M1397 692.5C1397 686.149 1402.15 681 1408.5 681L1709.5 681C1715.85 681 1721 686.149 1721 692.5L1721 738.5C1721 744.851 1715.85 750 1709.5 750L1408.5 750C1402.15 750 1397 744.851 1397 738.5Z" fill="#DCEAF7" fill-rule="evenodd"/><text font-family="Aptos Light,Aptos Light_MSFontService,sans-serif" font-weight="300" font-size="41" transform="matrix(1 0 0 1 1446.75 729)">Export Feeds</text><path d="M1397 789.667C1397 783.223 1402.22 778 1408.67 778L1780.33 778C1786.78 778 1792 783.223 1792 789.667L1792 836.333C1792 842.777 1786.78 848 1780.33 848L1408.67 848C1402.22 848 1397 842.777 1397 836.333Z" fill="#4190D7" fill-rule="evenodd"/><text fill="#FFFFFF" font-family="Aptos Light,Aptos Light_MSFontService,sans-serif" font-weight="300" font-size="41" transform="matrix(1 0 0 1 1451.89 826)">Transformations</text><path d="M1125 692.5C1125 686.149 1130.15 681 1136.5 681L1307.5 681C1313.85 681 1319 686.149 1319 692.5L1319 738.5C1319 744.851 1313.85 750 1307.5 750L1136.5 750C1130.15 750 1125 744.851 1125 738.5Z" fill="#4190D7" fill-rule="evenodd"/><text fill="#FFFFFF" font-family="Aptos Light,Aptos Light_MSFontService,sans-serif" font-weight="300" font-size="41" transform="matrix(1 0 0 1 1164.13 729)">Events</text><path d="M1749 595.667C1749 589.224 1754.22 584 1760.67 584L1881.33 584C1887.78 584 1893 589.224 1893 595.667L1893 642.333C1893 648.777 1887.78 654 1881.33 654L1760.67 654C1754.22 654 1749 648.777 1749 642.333Z" fill="#DCEAF7" fill-rule="evenodd"/><text font-family="Aptos Light,Aptos Light_MSFontService,sans-serif" font-weight="300" font-size="41" transform="matrix(1 0 0 1 1784.14 632)">CSV</text><path d="M1754 689.667C1754 683.223 1759.22 678 1765.67 678L1866.33 678C1872.78 678 1878 683.223 1878 689.667L1878 736.333C1878 742.777 1872.78 748 1866.33 748L1765.67 748C1759.22 748 1754 742.777 1754 736.333Z" fill="#DCEAF7" fill-rule="evenodd"/><text font-family="Aptos Light,Aptos Light_MSFontService,sans-serif" font-weight="300" font-size="41" transform="matrix(1 0 0 1 1786.12 726)">TXT</text><path d="M1748 497.667C1748 491.223 1753.22 486 1759.67 486L1896.33 486C1902.78 486 1908 491.223 1908 497.667L1908 544.333C1908 550.776 1902.78 556 1896.33 556L1759.67 556C1753.22 556 1748 550.776 1748 544.333Z" fill="#DCEAF7" fill-rule="evenodd"/><text font-family="Aptos Light,Aptos Light_MSFontService,sans-serif" font-weight="300" font-size="41" transform="matrix(1 0 0 1 1784.51 534)">XLSX</text><path d="M1659 303.667C1659 297.223 1664.22 292 1670.67 292L1807.33 292C1813.78 292 1819 297.223 1819 303.667L1819 350.333C1819 356.776 1813.78 362 1807.33 362L1670.67 362C1664.22 362 1659 356.776 1659 350.333Z" fill="#DCEAF7" fill-rule="evenodd"/><text font-family="Aptos Light,Aptos Light_MSFontService,sans-serif" font-weight="300" font-size="41" transform="matrix(1 0 0 1 1691.21 340)">JSON</text><path d="M1748 400.667C1748 394.224 1753.22 389 1759.67 389L1875.33 389C1881.78 389 1887 394.224 1887 400.667L1887 447.333C1887 453.776 1881.78 459 1875.33 459L1759.67 459C1753.22 459 1748 453.776 1748 447.333Z" fill="#DCEAF7" fill-rule="evenodd"/><text font-family="Aptos Light,Aptos Light_MSFontService,sans-serif" font-weight="300" font-size="41" transform="matrix(1 0 0 1 1780.21 437)">XML</text><path d="M1675 1379.67C1675 1373.22 1680.22 1368 1686.67 1368L1916.33 1368C1922.78 1368 1928 1373.22 1928 1379.67L1928 1426.33C1928 1432.78 1922.78 1438 1916.33 1438L1686.67 1438C1680.22 1438 1675 1432.78 1675 1426.33Z" fill="#DCEAF7" fill-rule="evenodd"/><text font-family="Aptos Light,Aptos Light_MSFontService,sans-serif" font-weight="300" font-size="41" transform="matrix(1 0 0 1 1710.14 1416)">Schedules</text><path d="M740 949.667C740 943.224 745.224 938 751.667 938L1214.33 938C1220.78 938 1226 943.224 1226 949.667L1226 996.333C1226 1002.78 1220.78 1008 1214.33 1008L751.667 1008C745.224 1008 740 1002.78 740 996.333Z" stroke="#A6CAEC" stroke-width="2.29167" stroke-miterlimit="8" fill="#FFFFFF" fill-rule="evenodd"/><text fill="#163E64" font-family="Aptos Light,Aptos Light_MSFontService,sans-serif" font-weight="700" font-size="46" transform="matrix(1 0 0 1 793.91 988)">Highly Configurable</text><path d="M147 789.667C147 783.223 152.224 778 158.667 778L577.333 778C583.776 778 589 783.223 589 789.667L589 836.333C589 842.777 583.776 848 577.333 848L158.667 848C152.224 848 147 842.777 147 836.333Z" fill="#DCEAF7" fill-rule="evenodd"/><text font-family="Aptos Light,Aptos Light_MSFontService,sans-serif" font-weight="300" font-size="41" transform="matrix(1 0 0 1 202.835 826)">Relation </text><text font-family="Aptos Light,Aptos Light_MSFontService,sans-serif" font-weight="300" font-size="41" transform="matrix(1 0 0 1 355.231 826)">Properties</text><path d="M147 1187.5C147 1181.15 152.149 1176 158.5 1176L562.5 1176C568.851 1176 574 1181.15 574 1187.5L574 1233.5C574 1239.85 568.851 1245 562.5 1245L158.5 1245C152.149 1245 147 1239.85 147 1233.5Z" fill="#DCEAF7" fill-rule="evenodd"/><text font-family="Aptos Light,Aptos Light_MSFontService,sans-serif" font-weight="300" font-size="41" transform="matrix(1 0 0 1 215.154 1224)">HTML Templates</text><path d="M463 1379.67C463 1373.22 468.223 1368 474.667 1368L617.333 1368C623.777 1368 629 1373.22 629 1379.67L629 1426.33C629 1432.78 623.777 1438 617.333 1438L474.667 1438C468.223 1438 463 1432.78 463 1426.33Z" fill="#4190D7" fill-rule="evenodd"/><text fill="#FFFFFF" font-family="Aptos Light,Aptos Light_MSFontService,sans-serif" font-weight="300" font-size="41" transform="matrix(1 0 0 1 499.852 1416)">PDFs</text><path d="M147 1285.67C147 1279.22 152.224 1274 158.667 1274L529.333 1274C535.777 1274 541 1279.22 541 1285.67L541 1332.33C541 1338.78 535.777 1344 529.333 1344L158.667 1344C152.224 1344 147 1338.78 147 1332.33Z" fill="#4190D7" fill-rule="evenodd"/><text fill="#FFFFFF" font-family="Aptos Light,Aptos Light_MSFontService,sans-serif" font-weight="300" font-size="41" transform="matrix(1 0 0 1 202.401 1322)">ERP Documents</text><path d="M395 1478.67C395 1472.22 400.223 1467 406.667 1467L636.333 1467C642.776 1467 648 1472.22 648 1478.67L648 1525.33C648 1531.78 642.776 1537 636.333 1537L406.667 1537C400.223 1537 395 1531.78 395 1525.33Z" fill="#4190D7" fill-rule="evenodd"/><text fill="#FFFFFF" font-family="Aptos Light,Aptos Light_MSFontService,sans-serif" font-weight="300" font-size="41" transform="matrix(1 0 0 1 444.098 1515)">Catalogs</text><path d="M147 1479.67C147 1473.22 152.224 1468 158.667 1468L358.333 1468C364.776 1468 370 1473.22 370 1479.67L370 1526.33C370 1532.78 364.776 1538 358.333 1538L158.667 1538C152.224 1538 147 1532.78 147 1526.33Z" fill="#4190D7" fill-rule="evenodd"/><text fill="#FFFFFF" font-family="Aptos Light,Aptos Light_MSFontService,sans-serif" font-weight="300" font-size="41" transform="matrix(1 0 0 1 207.385 1516)">Flyers</text><path d="M147 1576.5C147 1570.15 152.149 1565 158.5 1565L435.5 1565C441.851 1565 447 1570.15 447 1576.5L447 1622.5C447 1628.85 441.851 1634 435.5 1634L158.5 1634C152.149 1634 147 1628.85 147 1622.5Z" fill="#4190D7" fill-rule="evenodd"/><text fill="#FFFFFF" font-family="Aptos Light,Aptos Light_MSFontService,sans-serif" font-weight="300" font-size="41" transform="matrix(1 0 0 1 196.707 1613)">Datasheets</text><path d="M147 1382.67C147 1376.22 152.224 1371 158.667 1371L420.333 1371C426.777 1371 432 1376.22 432 1382.67L432 1429.33C432 1435.78 426.777 1441 420.333 1441L158.667 1441C152.224 1441 147 1435.78 147 1429.33Z" fill="#4190D7" fill-rule="evenodd"/><text fill="#FFFFFF" font-family="Aptos Light,Aptos Light_MSFontService,sans-serif" font-weight="300" font-size="41" transform="matrix(1 0 0 1 199.739 1419)">Brochures</text><path d="M1079 1576.67C1079 1570.22 1084.22 1565 1090.67 1565L1314.33 1565C1320.78 1565 1326 1570.22 1326 1576.67L1326 1623.33C1326 1629.78 1320.78 1635 1314.33 1635L1090.67 1635C1084.22 1635 1079 1629.78 1079 1623.33Z" fill="#DCEAF7" fill-rule="evenodd"/><text font-family="Aptos Light,Aptos Light_MSFontService,sans-serif" font-weight="300" font-size="41" transform="matrix(1 0 0 1 1125.08 1614)">Previews</text><path d="M1396 1186.67C1396 1180.22 1401.22 1175 1407.67 1175L1673.33 1175C1679.78 1175 1685 1180.22 1685 1186.67L1685 1233.33C1685 1239.78 1679.78 1245 1673.33 1245L1407.67 1245C1401.22 1245 1396 1239.78 1396 1233.33Z" fill="#4190D7" fill-rule="evenodd"/><text fill="#FFFFFF" font-family="Aptos Light,Aptos Light_MSFontService,sans-serif" font-weight="300" font-size="41" transform="matrix(1 0 0 1 1449.16 1223)">Workflows</text><path d="M2019 303.667C2019 297.223 2024.22 292 2030.67 292L2248.33 292C2254.78 292 2260 297.223 2260 303.667L2260 350.333C2260 356.777 2254.78 362 2248.33 362L2030.67 362C2024.22 362 2019 356.777 2019 350.333Z" fill="#DCEAF7" fill-rule="evenodd"/><text font-family="Aptos Light,Aptos Light_MSFontService,sans-serif" font-weight="300" font-size="41" transform="matrix(1 0 0 1 2058.73 340)">Mentions</text><path d="M2019 400.667C2019 394.224 2024.22 389 2030.67 389L2296.33 389C2302.78 389 2308 394.224 2308 400.667L2308 447.333C2308 453.777 2302.78 459 2296.33 459L2030.67 459C2024.22 459 2019 453.777 2019 447.333Z" fill="#DCEAF7" fill-rule="evenodd"/><text font-family="Aptos Light,Aptos Light_MSFontService,sans-serif" font-weight="300" font-size="41" transform="matrix(1 0 0 1 2066.13 437)">Comments</text><path d="M2019 497.667C2019 491.223 2024.22 486 2030.67 486L2296.33 486C2302.78 486 2308 491.223 2308 497.667L2308 544.333C2308 550.777 2302.78 556 2296.33 556L2030.67 556C2024.22 556 2019 550.777 2019 544.333Z" fill="#DCEAF7" fill-rule="evenodd"/><text font-family="Aptos Light,Aptos Light_MSFontService,sans-serif" font-weight="300" font-size="41" transform="matrix(1 0 0 1 2056.97 535)">Dashboards</text><path d="M2017 692.5C2017 686.149 2022.15 681 2028.5 681L2322.5 681C2328.85 681 2334 686.149 2334 692.5L2334 738.5C2334 744.851 2328.85 750 2322.5 750L2028.5 750C2022.15 750 2017 744.851 2017 738.5Z" fill="#DCEAF7" fill-rule="evenodd"/><text font-family="Aptos Light,Aptos Light_MSFontService,sans-serif" font-weight="300" font-size="41" transform="matrix(1 0 0 1 2063.98 729)">Assignments</text><path d="M2021 595.667C2021 589.223 2026.22 584 2032.67 584L2361.33 584C2367.78 584 2373 589.223 2373 595.667L2373 642.333C2373 648.776 2367.78 654 2361.33 654L2032.67 654C2026.22 654 2021 648.776 2021 642.333Z" fill="#DCEAF7" fill-rule="evenodd"/><text font-family="Aptos Light,Aptos Light_MSFontService,sans-serif" font-weight="300" font-size="41" transform="matrix(1 0 0 1 2077.36 632)">Shared Filters</text><path d="M2346 788.667C2346 782.223 2351.22 777 2357.67 777L2518.33 777C2524.78 777 2530 782.223 2530 788.667L2530 835.333C2530 841.777 2524.78 847 2518.33 847L2357.67 847C2351.22 847 2346 841.777 2346 835.333Z" fill="#4190D7" fill-rule="evenodd"/><text fill="#FFFFFF" font-family="Aptos Light,Aptos Light_MSFontService,sans-serif" font-weight="300" font-size="41" transform="matrix(1 0 0 1 2389 825)">Tasks</text><path d="M2286 302.667C2286 296.224 2291.22 291 2297.67 291L2515.33 291C2521.78 291 2527 296.224 2527 302.667L2527 349.333C2527 355.777 2521.78 361 2515.33 361L2297.67 361C2291.22 361 2286 355.777 2286 349.333Z" fill="#DCEAF7" fill-rule="evenodd"/><text font-family="Aptos Light,Aptos Light_MSFontService,sans-serif" font-weight="300" font-size="41" transform="matrix(1 0 0 1 2324.01 339)">Following</text><path d="M764 1284.67C764 1278.22 769.224 1273 775.667 1273L1108.33 1273C1114.78 1273 1120 1278.22 1120 1284.67L1120 1331.33C1120 1337.78 1114.78 1343 1108.33 1343L775.667 1343C769.224 1343 764 1337.78 764 1331.33Z" fill="#DCEAF7" fill-rule="evenodd"/><text font-family="Aptos Light,Aptos Light_MSFontService,sans-serif" font-weight="300" font-size="41" transform="matrix(1 0 0 1 811.415 1321)">Storable Filters</text><path d="M764 1381.67C764 1375.22 769.224 1370 775.667 1370L990.333 1370C996.777 1370 1002 1375.22 1002 1381.67L1002 1428.33C1002 1434.78 996.777 1440 990.333 1440L775.667 1440C769.224 1440 764 1434.78 764 1428.33Z" fill="#DCEAF7" fill-rule="evenodd"/><text font-family="Aptos Light,Aptos Light_MSFontService,sans-serif" font-weight="300" font-size="41" transform="matrix(1 0 0 1 807.814 1418)">Bulk Edit</text><path d="M764 1478.67C764 1472.22 769.224 1467 775.667 1467L979.333 1467C985.777 1467 991 1472.22 991 1478.67L991 1525.33C991 1531.78 985.777 1537 979.333 1537L775.667 1537C769.224 1537 764 1531.78 764 1525.33Z" fill="#DCEAF7" fill-rule="evenodd"/><text font-family="Aptos Light,Aptos Light_MSFontService,sans-serif" font-weight="300" font-size="41" transform="matrix(1 0 0 1 798.121 1515)">Favorites</text><path d="M1033 1379.67C1033 1373.22 1038.22 1368 1044.67 1368L1295.33 1368C1301.78 1368 1307 1373.22 1307 1379.67L1307 1426.33C1307 1432.78 1301.78 1438 1295.33 1438L1044.67 1438C1038.22 1438 1033 1432.78 1033 1426.33Z" fill="#DCEAF7" fill-rule="evenodd"/><text font-family="Aptos Light,Aptos Light_MSFontService,sans-serif" font-weight="300" font-size="41" transform="matrix(1 0 0 1 1071.83 1416)">Bookmarks</text><path d="M764 1575.67C764 1569.22 769.224 1564 775.667 1564L1041.33 1564C1047.78 1564 1053 1569.22 1053 1575.67L1053 1622.33C1053 1628.78 1047.78 1634 1041.33 1634L775.667 1634C769.224 1634 764 1628.78 764 1622.33Z" fill="#DCEAF7" fill-rule="evenodd"/><text font-family="Aptos Light,Aptos Light_MSFontService,sans-serif" font-weight="300" font-size="41" transform="matrix(1 0 0 1 797.158 1613)">Notifications</text><path d="M764 1673.5C764 1667.15 769.149 1662 775.5 1662L952.5 1662C958.851 1662 964 1667.15 964 1673.5L964 1719.5C964 1725.85 958.851 1731 952.5 1731L775.5 1731C769.149 1731 764 1725.85 764 1719.5Z" fill="#DCEAF7" fill-rule="evenodd"/><text font-family="Aptos Light,Aptos Light_MSFontService,sans-serif" font-weight="300" font-size="41" transform="matrix(1 0 0 1 795.477 1710)">Layouts</text><path d="M1011 1187.5C1011 1181.15 1016.15 1176 1022.5 1176L1318.5 1176C1324.85 1176 1330 1181.15 1330 1187.5L1330 1233.5C1330 1239.85 1324.85 1245 1318.5 1245L1022.5 1245C1016.15 1245 1011 1239.85 1011 1233.5Z" fill="#DCEAF7" fill-rule="evenodd"/><text font-family="Aptos Light,Aptos Light_MSFontService,sans-serif" font-weight="300" font-size="41" transform="matrix(1 0 0 1 1042.15 1224)">Dynamic Logic</text><path d="M2337 495.667C2337 489.223 2342.22 484 2348.67 484L2529.33 484C2535.78 484 2541 489.223 2541 495.667L2541 542.333C2541 548.777 2535.78 554 2529.33 554L2348.67 554C2342.22 554 2337 548.777 2337 542.333Z" fill="#DCEAF7" fill-rule="evenodd"/><text font-family="Aptos Light,Aptos Light_MSFontService,sans-serif" font-weight="300" font-size="41" transform="matrix(1 0 0 1 2377.48 533)">History</text><path d="M1725 1480.5C1725 1474.15 1730.15 1469 1736.5 1469L1916.5 1469C1922.85 1469 1928 1474.15 1928 1480.5L1928 1526.5C1928 1532.85 1922.85 1538 1916.5 1538L1736.5 1538C1730.15 1538 1725 1532.85 1725 1526.5Z" fill="#A6CAEC" fill-rule="evenodd"/><text font-family="Aptos Light,Aptos Light_MSFontService,sans-serif" font-weight="300" font-size="41" transform="matrix(1 0 0 1 1761.36 1517)">Action</text><text font-family="Aptos Light,Aptos Light_MSFontService,sans-serif" font-weight="300" font-size="41" transform="matrix(1 0 0 1 1872.5 1517)">s</text><path d="M1397 1381.67C1397 1375.22 1402.22 1370 1408.67 1370L1637.33 1370C1643.78 1370 1649 1375.22 1649 1381.67L1649 1428.33C1649 1434.78 1643.78 1440 1637.33 1440L1408.67 1440C1402.22 1440 1397 1434.78 1397 1428.33Z" fill="#DCEAF7" fill-rule="evenodd"/><text font-family="Aptos Light,Aptos Light_MSFontService,sans-serif" font-weight="300" font-size="41" transform="matrix(1 0 0 1 1432.35 1418)">Processes</text><path d="M1397 1478.67C1397 1472.22 1402.22 1467 1408.67 1467L1684.33 1467C1690.78 1467 1696 1472.22 1696 1478.67L1696 1525.33C1696 1531.78 1690.78 1537 1684.33 1537L1408.67 1537C1402.22 1537 1397 1531.78 1397 1525.33Z" fill="#A6CAEC" fill-rule="evenodd"/><text font-family="Aptos Light,Aptos Light_MSFontService,sans-serif" font-weight="300" font-size="41" transform="matrix(1 0 0 1 1436.57 1515)">Action Types</text><path d="M1396 1283.67C1396 1277.22 1401.22 1272 1407.67 1272L1754.33 1272C1760.78 1272 1766 1277.22 1766 1283.67L1766 1330.33C1766 1336.78 1760.78 1342 1754.33 1342L1407.67 1342C1401.22 1342 1396 1336.78 1396 1330.33Z" fill="#4190D7" fill-rule="evenodd"/><text fill="#FFFFFF" font-family="Aptos Light,Aptos Light_MSFontService,sans-serif" font-weight="300" font-size="41" transform="matrix(1 0 0 1 1440.44 1320)">Validation Rules</text><path d="M1397 1575.67C1397 1569.22 1402.22 1564 1408.67 1564L1721.33 1564C1727.78 1564 1733 1569.22 1733 1575.67L1733 1622.33C1733 1628.78 1727.78 1634 1721.33 1634L1408.67 1634C1402.22 1634 1397 1628.78 1397 1622.33Z" fill="#4190D7" fill-rule="evenodd"/><text fill="#FFFFFF" font-family="Aptos Light,Aptos Light_MSFontService,sans-serif" font-weight="300" font-size="41" transform="matrix(1 0 0 1 1433.18 1613)">Quality Checks</text><path d="M1714 1186.67C1714 1180.22 1719.22 1175 1725.67 1175L1808.33 1175C1814.78 1175 1820 1180.22 1820 1186.67L1820 1233.33C1820 1239.78 1814.78 1245 1808.33 1245L1725.67 1245C1719.22 1245 1714 1239.78 1714 1233.33Z" fill="#A6CAEC" fill-rule="evenodd"/><text font-family="Aptos Light,Aptos Light_MSFontService,sans-serif" font-weight="300" font-size="41" transform="matrix(1 0 0 1 1749.88 1223)">AI</text><path d="M1397 1673.5C1397 1667.15 1402.15 1662 1408.5 1662L1785.5 1662C1791.85 1662 1797 1667.15 1797 1673.5L1797 1719.5C1797 1725.85 1791.85 1731 1785.5 1731L1408.5 1731C1402.15 1731 1397 1725.85 1397 1719.5Z" fill="#DCEAF7" fill-rule="evenodd"/><text font-family="Aptos Light,Aptos Light_MSFontService,sans-serif" font-weight="300" font-size="41" transform="matrix(1 0 0 1 1457.64 1710)">1</text><text font-family="Aptos Light,Aptos Light_MSFontService,sans-serif" font-weight="300" font-size="41" transform="matrix(1 0 0 1 1479.41 1710)">-</text><text font-family="Aptos Light,Aptos Light_MSFontService,sans-serif" font-weight="300" font-size="41" transform="matrix(1 0 0 1 1493.73 1710)">Click Updates</text><path d="M2017 1186.67C2017 1180.22 2022.22 1175 2028.67 1175L2178.33 1175C2184.78 1175 2190 1180.22 2190 1186.67L2190 1233.33C2190 1239.78 2184.78 1245 2178.33 1245L2028.67 1245C2022.22 1245 2017 1239.78 2017 1233.33Z" fill="#DCEAF7" fill-rule="evenodd"/><text font-family="Aptos Light,Aptos Light_MSFontService,sans-serif" font-weight="300" font-size="41" transform="matrix(1 0 0 1 2052.87 1223)">Users</text><path d="M2017 1381.67C2017 1375.22 2022.22 1370 2028.67 1370L2206.33 1370C2212.78 1370 2218 1375.22 2218 1381.67L2218 1428.33C2218 1434.78 2212.78 1440 2206.33 1440L2028.67 1440C2022.22 1440 2017 1434.78 2017 1428.33Z" fill="#DCEAF7" fill-rule="evenodd"/><text font-family="Aptos Light,Aptos Light_MSFontService,sans-serif" font-weight="300" font-size="41" transform="matrix(1 0 0 1 2053.02 1418)">Groups</text><path d="M2017 1284.67C2017 1278.22 2022.22 1273 2028.67 1273L2206.33 1273C2212.78 1273 2218 1278.22 2218 1284.67L2218 1331.33C2218 1337.78 2212.78 1343 2206.33 1343L2028.67 1343C2022.22 1343 2017 1337.78 2017 1331.33Z" fill="#DCEAF7" fill-rule="evenodd"/><text font-family="Aptos Light,Aptos Light_MSFontService,sans-serif" font-weight="300" font-size="41" transform="matrix(1 0 0 1 2068.78 1321)">Roles</text><path d="M2017 1575.67C2017 1569.22 2022.22 1564 2028.67 1564L2382.33 1564C2388.78 1564 2394 1569.22 2394 1575.67L2394 1622.33C2394 1628.78 2388.78 1634 2382.33 1634L2028.67 1634C2022.22 1634 2017 1628.78 2017 1622.33Z" fill="#DCEAF7" fill-rule="evenodd"/><text font-family="Aptos Light,Aptos Light_MSFontService,sans-serif" font-weight="300" font-size="41" transform="matrix(1 0 0 1 2069.88 1613)">Access Queries</text><path d="M2017 1673.5C2017 1667.15 2022.15 1662 2028.5 1662L2382.5 1662C2388.85 1662 2394 1667.15 2394 1673.5L2394 1719.5C2394 1725.85 2388.85 1731 2382.5 1731L2028.5 1731C2022.15 1731 2017 1725.85 2017 1719.5Z" fill="#DCEAF7" fill-rule="evenodd"/><text font-family="Aptos Light,Aptos Light_MSFontService,sans-serif" font-weight="300" font-size="41" transform="matrix(1 0 0 1 2063.86 1710)">Field</text><text font-family="Aptos Light,Aptos Light_MSFontService,sans-serif" font-weight="300" font-size="41" transform="matrix(1 0 0 1 2147.51 1710)">-</text><text font-family="Aptos Light,Aptos Light_MSFontService,sans-serif" font-weight="300" font-size="41" transform="matrix(1 0 0 1 2161.83 1710)">level Rules</text><path d="M2017 1478.67C2017 1472.22 2022.22 1467 2028.67 1467L2294.33 1467C2300.78 1467 2306 1472.22 2306 1478.67L2306 1525.33C2306 1531.78 2300.78 1537 2294.33 1537L2028.67 1537C2022.22 1537 2017 1531.78 2017 1525.33Z" fill="#DCEAF7" fill-rule="evenodd"/><text font-family="Aptos Light,Aptos Light_MSFontService,sans-serif" font-weight="300" font-size="41" transform="matrix(1 0 0 1 2060.41 1515)">Action Logs</text><path d="M147 1671.5C147 1665.15 152.149 1660 158.5 1660L539.5 1660C545.851 1660 551 1665.15 551 1671.5L551 1717.5C551 1723.85 545.851 1729 539.5 1729L158.5 1729C152.149 1729 147 1723.85 147 1717.5Z" fill="#4190D7" fill-rule="evenodd"/><text fill="#FFFFFF" font-family="Aptos Light,Aptos Light_MSFontService,sans-serif" font-weight="300" font-size="41" transform="matrix(1 0 0 1 201.576 1708)">Office Templates</text><path d="M983 1671.5C983 1665.15 988.149 1660 994.5 1660L1260.5 1660C1266.85 1660 1272 1665.15 1272 1671.5L1272 1717.5C1272 1723.85 1266.85 1729 1260.5 1729L994.5 1729C988.149 1729 983 1723.85 983 1717.5Z" fill="#DCEAF7" fill-rule="evenodd"/><text font-family="Aptos Light,Aptos Light_MSFontService,sans-serif" font-weight="300" font-size="41" transform="matrix(1 0 0 1 1027.56 1708)">Responsive</text><path d="M2225 949.667C2225 943.224 2230.22 938 2236.67 938L2449.33 938C2455.78 938 2461 943.224 2461 949.667L2461 996.333C2461 1002.78 2455.78 1008 2449.33 1008L2236.67 1008C2230.22 1008 2225 1002.78 2225 996.333Z" stroke="#A6CAEC" stroke-width="2.29167" stroke-miterlimit="8" fill="#FFFFFF" fill-rule="evenodd"/><text fill="#163E64" font-family="Aptos Light,Aptos Light_MSFontService,sans-serif" font-weight="700" font-size="46" transform="matrix(1 0 0 1 2263.08 988)">Modular</text><path d="M769 1186.67C769 1180.22 774.223 1175 780.667 1175L971.333 1175C977.777 1175 983 1180.22 983 1186.67L983 1233.33C983 1239.78 977.777 1245 971.333 1245L780.667 1245C774.223 1245 769 1239.78 769 1233.33Z" fill="#DCEAF7" fill-rule="evenodd"/><text font-family="Aptos Light,Aptos Light_MSFontService,sans-serif" font-weight="300" font-size="41" transform="matrix(1 0 0 1 807.457 1223)">Themes</text><g><g><g><path d="M144 925.179 244 925.179 244 1025.18 144 1025.18Z" fill="#FFFFFF"/><path d="M173.91 1025.18 230.974 1025.18 222.301 1002.62 182.111 1002.62Z" fill="#C80B19"/><path d="M188.353 985.679 215.788 985.679 201.932 948.365Z" fill="#C80B19"/><path d="M191.332 925.179 144 925.179 144 1025.18 152.38 1025.18Z" fill="#C80B19"/><path d="M244 1002.57 244 925.179 213.015 925.179Z" fill="#C80B19"/></g></g></g><path d="M468 691.667C468 685.223 473.223 680 479.667 680L679.333 680C685.777 680 691 685.223 691 691.667L691 738.333C691 744.776 685.777 750 679.333 750L479.667 750C473.223 750 468 744.776 468 738.333Z" fill="#DCEAF7" fill-rule="evenodd"/><text font-family="Aptos Light,Aptos Light_MSFontService,sans-serif" font-weight="300" font-size="41" transform="matrix(1 0 0 1 501.229 729)">Any Data</text><path d="M2218 1186.67C2218 1180.22 2223.22 1175 2229.67 1175L2474.33 1175C2480.78 1175 2486 1180.22 2486 1186.67L2486 1233.33C2486 1239.78 2480.78 1245 2474.33 1245L2229.67 1245C2223.22 1245 2218 1239.78 2218 1233.33Z" fill="#DCEAF7" fill-rule="evenodd"/><text font-family="Aptos Light,Aptos Light_MSFontService,sans-serif" font-weight="300" font-size="41" transform="matrix(1 0 0 1 2256.02 1223)">Activations</text><path d="M951 498.5C951 492.149 956.149 487 962.5 487L1324.5 487C1330.85 487 1336 492.149 1336 498.5L1336 544.499C1336 550.851 1330.85 556 1324.5 556L962.5 556C956.149 556 951 550.851 951 544.499Z" fill="#A6CAEC" fill-rule="evenodd"/><text font-family="Aptos Light,Aptos Light_MSFontService,sans-serif" font-weight="300" font-size="41" transform="matrix(1 0 0 1 995.818 535)">Business Central</text><path d="M951 789.667C951 783.223 956.224 778 962.667 778L1154.33 778C1160.78 778 1166 783.223 1166 789.667L1166 836.333C1166 842.776 1160.78 848 1154.33 848L962.667 848C956.224 848 951 842.776 951 836.333Z" fill="#A6CAEC" fill-rule="evenodd"/><text font-family="Aptos Light,Aptos Light_MSFontService,sans-serif" font-weight="300" font-size="41" transform="matrix(1 0 0 1 982.458 826)">Magento</text><path d="M2334 401.667C2334 395.224 2339.22 390 2345.67 390L2559.33 390C2565.78 390 2571 395.224 2571 401.667L2571 448.333C2571 454.777 2565.78 460 2559.33 460L2345.67 460C2339.22 460 2334 454.777 2334 448.333Z" fill="#DCEAF7" fill-rule="evenodd"/><text font-family="Aptos Light,Aptos Light_MSFontService,sans-serif" font-weight="300" font-size="41" transform="matrix(1 0 0 1 2387.18 438)">Sharing</text><path d="M1614 949.667C1614 943.224 1619.22 938 1625.67 938L1896.33 938C1902.78 938 1908 943.224 1908 949.667L1908 996.333C1908 1002.78 1902.78 1008 1896.33 1008L1625.67 1008C1619.22 1008 1614 1002.78 1614 996.333Z" stroke="#A6CAEC" stroke-width="2.29167" stroke-miterlimit="8" fill="#FFFFFF" fill-rule="evenodd"/><text fill="#163E64" font-family="Aptos Light,Aptos Light_MSFontService,sans-serif" font-weight="700" font-size="46" transform="matrix(1 0 0 1 1688.08 988)">Flexible</text><path d="M1940 949.667C1940 943.224 1945.22 938 1951.67 938L2181.33 938C2187.78 938 2193 943.224 2193 949.667L2193 996.333C2193 1002.78 2187.78 1008 2181.33 1008L1951.67 1008C1945.22 1008 1940 1002.78 1940 996.333Z" stroke="#A6CAEC" stroke-width="2.29167" stroke-miterlimit="8" fill="#FFFFFF" fill-rule="evenodd"/><text fill="#163E64" font-family="Aptos Light,Aptos Light_MSFontService,sans-serif" font-weight="700" font-size="46" transform="matrix(1 0 0 1 1982.98 988)">Scalable</text><path d="M610 1821.5C610 1815.15 615.149 1810 621.5 1810L667.5 1810C673.851 1810 679 1815.15 679 1821.5L679 1867.5C679 1873.85 673.851 1879 667.5 1879L621.5 1879C615.149 1879 610 1873.85 610 1867.5Z" fill="#DCEAF7" fill-rule="evenodd"/><path d="M1667 1821.33C1667 1815.07 1672.07 1810 1678.33 1810L1723.67 1810C1729.93 1810 1735 1815.07 1735 1821.33L1735 1867.67C1735 1873.93 1729.93 1879 1723.67 1879L1678.33 1879C1672.07 1879 1667 1873.93 1667 1867.67Z" fill="#4190D7" fill-rule="evenodd"/><path d="M1076 1821.5C1076 1815.15 1081.15 1810 1087.5 1810L1133.5 1810C1139.85 1810 1145 1815.15 1145 1821.5L1145 1867.5C1145 1873.85 1139.85 1879 1133.5 1879L1087.5 1879C1081.15 1879 1076 1873.85 1076 1867.5Z" fill="#A6CAEC" fill-rule="evenodd"/><path d="M2017 788.667C2017 782.223 2022.22 777 2028.67 777L2304.33 777C2310.78 777 2316 782.223 2316 788.667L2316 835.333C2316 841.776 2310.78 846.999 2304.33 846.999L2028.67 846.999C2022.22 846.999 2017 841.776 2017 835.333Z" fill="#DCEAF7" fill-rule="evenodd"/><text font-family="Aptos Light,Aptos Light_MSFontService,sans-serif" font-weight="300" font-size="41" transform="matrix(1 0 0 1 2071.72 825)">Ownership</text><path d="M2363 689.667C2363 683.223 2368.22 678 2374.67 678L2545.33 678C2551.78 678 2557 683.223 2557 689.667L2557 736.333C2557 742.777 2551.78 748 2545.33 748L2374.67 748C2368.22 748 2363 742.777 2363 736.333Z" fill="#4190D7" fill-rule="evenodd"/><text fill="#FFFFFF" font-family="Aptos Light,Aptos Light_MSFontService,sans-serif" font-weight="300" font-size="41" transform="matrix(1 0 0 1 2392.35 726)">Reports</text><path d="M1024 1478.67C1024 1472.22 1029.22 1467 1035.67 1467L1302.33 1467C1308.78 1467 1314 1472.22 1314 1478.67L1314 1525.33C1314 1531.78 1308.78 1537 1302.33 1537L1035.67 1537C1029.22 1537 1024 1531.78 1024 1525.33Z" fill="#DCEAF7" fill-rule="evenodd"/><text font-family="Aptos Light,Aptos Light_MSFontService,sans-serif" font-weight="300" font-size="41" transform="matrix(1 0 0 1 1083.91 1515)">Inline Edit</text><path d="M1815 791.667C1815 785.223 1820.22 780 1826.67 780L1926.33 780C1932.78 780 1938 785.223 1938 791.667L1938 838.333C1938 844.777 1932.78 850 1926.33 850L1826.67 850C1820.22 850 1815 844.777 1815 838.333Z" fill="#4190D7" fill-rule="evenodd"/><text fill="#FFFFFF" font-family="Aptos Light,Aptos Light_MSFontService,sans-serif" font-weight="300" font-size="41" transform="matrix(1 0 0 1 1844.76 828)">FTP</text><text font-family="Aptos Light,Aptos Light_MSFontService,sans-serif" font-style="italic" font-weight="300" font-size="46" transform="matrix(1 0 0 1 278.196 988)">Feature Overview</text><text font-family="Aptos Light,Aptos Light_MSFontService,sans-serif" font-weight="300" font-size="41" transform="matrix(1 0 0 1 1760.06 1857)">Paid Functionality</text><text font-family="Aptos Light,Aptos Light_MSFontService,sans-serif" font-weight="300" font-size="41" transform="matrix(1 0 0 1 1169.62 1857)">Partly Paid Functionality</text><text font-family="Aptos Light,Aptos Light_MSFontService,sans-serif" font-weight="300" font-size="41" transform="matrix(1 0 0 1 703.245 1857)">Free Functionality</text></g></svg>