<?xml version="1.0" encoding="UTF-8" standalone="no"?>
<!-- Created with Inkscape (http://www.inkscape.org/) -->

<svg
   xml:space="preserve"
   id="svg5"
   version="1.1"
   viewBox="0 0 150.37321 27"
   height="27mm"
   width="150.37321mm"
   xmlns="http://www.w3.org/2000/svg"
   xmlns:svg="http://www.w3.org/2000/svg"><defs
     id="defs2" /><style
     type="text/css"
     id="style9">
	.st0{fill:#FFFFFF;}
	.st1{fill:#C80B19;}
</style><g
     id="layer2"
     transform="translate(-23.320221,-28.700961)"><g
       aria-label="troCore"
       id="text514"
       style="font-weight:bold;font-size:32.4556px;font-family:Inter;-inkscape-font-specification:'Inter Bold';stroke-width:0.264583"><path
         d="m 65.193116,36.520406 v 3.688137 H 54.532097 v -3.688137 z m -8.24068,-3.183024 4.909832,-1.058333 V 48.78346 c 0,0.453333 0.06915,0.80678 0.207457,1.060339 0.138305,0.245876 0.330396,0.418757 0.576272,0.518644 0.253559,0.09989 0.545537,0.149831 0.875932,0.149831 0.230509,0 0.461017,-0.01921 0.691526,-0.05763 0.230509,-0.0461 0.407232,-0.08068 0.530169,-0.103729 l 0.772204,3.65356 c -0.245876,0.07684 -0.591639,0.165198 -1.037288,0.265085 -0.44565,0.107571 -0.987345,0.172881 -1.625086,0.195932 -1.183277,0.0461 -2.220565,-0.111414 -3.111865,-0.472542 -0.883616,-0.36113 -1.5713,-0.922034 -2.063051,-1.682713 -0.491751,-0.760678 -0.733785,-1.72113 -0.726102,-2.881356 z"
         id="path1064" /><path
         d="M 68.385664,54.223461 V 36.520406 h 4.760002 v 3.088814 h 0.184406 q 0.484068,-1.648135 1.625086,-2.489492 1.141017,-0.852881 2.627797,-0.852881 0.368813,0 0.795254,0.0461 0.426441,0.0461 0.749153,0.126779 v 4.356611 q -0.345763,-0.103728 -0.95661,-0.184406 -0.610848,-0.08068 -1.117967,-0.08068 -1.08339,0 -1.936271,0.472542 -0.841357,0.461017 -1.33695,1.290848 -0.484068,0.829831 -0.484068,1.913221 v 10.015595 z"
         id="path1066" /><path
         d="m 88.820235,54.569224 q -2.685424,0 -4.644747,-1.141017 -1.947797,-1.152543 -3.008136,-3.204069 -1.060339,-2.063051 -1.060339,-4.783052 0,-2.743051 1.060339,-4.794577 1.060339,-2.063051 3.008136,-3.204069 1.959323,-1.152542 4.644747,-1.152542 2.685424,0 4.633221,1.152542 1.959323,1.141018 3.019662,3.204069 1.060339,2.051526 1.060339,4.794577 0,2.720001 -1.060339,4.783052 -1.060339,2.051526 -3.019662,3.204069 -1.947797,1.141017 -4.633221,1.141017 z m 0.02305,-3.803391 q 1.221695,0 2.04,-0.691525 0.818306,-0.703051 1.233221,-1.913221 0.426441,-1.21017 0.426441,-2.754577 0,-1.544407 -0.426441,-2.754577 -0.414915,-1.21017 -1.233221,-1.913221 -0.818305,-0.703051 -2.04,-0.703051 -1.233221,0 -2.074577,0.703051 -0.829831,0.703051 -1.256271,1.913221 -0.414916,1.21017 -0.414916,2.754577 0,1.544407 0.414916,2.754577 0.42644,1.21017 1.256271,1.913221 0.841356,0.691525 2.074577,0.691525 z"
         id="path1068" /><path
         d="m 121.65616,38.883119 h -5.04813 q -0.13831,-0.979662 -0.56475,-1.74034 -0.42644,-0.772203 -1.09492,-1.313898 -0.66847,-0.541695 -1.5444,-0.829831 -0.86441,-0.288136 -1.87865,-0.288136 -1.83254,0 -3.19254,0.910509 -1.36,0.898983 -2.10915,2.627797 -0.74916,1.717289 -0.74916,4.172205 0,2.524068 0.74916,4.241356 0.76067,1.717289 2.12067,2.593221 1.36,0.875933 3.14645,0.875933 1.00271,0 1.85559,-0.265085 0.86441,-0.265085 1.53288,-0.772204 0.66848,-0.518644 1.10644,-1.256271 0.44949,-0.737627 0.62238,-1.682712 l 5.04813,0.02305 q -0.19593,1.625085 -0.97966,3.134916 -0.7722,1.498305 -2.0861,2.685424 -1.30237,1.175593 -3.11187,1.867119 -1.79796,0.68 -4.06847,0.68 -3.15797,0 -5.64746,-1.429153 -2.47797,-1.429153 -3.91865,-4.137628 -1.42915,-2.708475 -1.42915,-6.557967 0,-3.861018 1.4522,-6.569494 1.45221,-2.708475 3.9417,-4.126102 2.48949,-1.429153 5.60136,-1.429153 2.05152,0 3.80339,0.576271 1.76339,0.576272 3.12339,1.682713 1.36,1.094915 2.21288,2.685424 0.86441,1.590509 1.10644,3.642035 z"
         id="path1070" /><path
         d="m 133.14701,54.569224 q -2.68542,0 -4.64475,-1.141017 -1.94779,-1.152543 -3.00813,-3.204069 -1.06034,-2.063051 -1.06034,-4.783052 0,-2.743051 1.06034,-4.794577 1.06034,-2.063051 3.00813,-3.204069 1.95933,-1.152542 4.64475,-1.152542 2.68542,0 4.63322,1.152542 1.95932,1.141018 3.01966,3.204069 1.06034,2.051526 1.06034,4.794577 0,2.720001 -1.06034,4.783052 -1.06034,2.051526 -3.01966,3.204069 -1.9478,1.141017 -4.63322,1.141017 z m 0.0231,-3.803391 q 1.2217,0 2.04,-0.691525 0.81831,-0.703051 1.23322,-1.913221 0.42644,-1.21017 0.42644,-2.754577 0,-1.544407 -0.42644,-2.754577 -0.41491,-1.21017 -1.23322,-1.913221 -0.8183,-0.703051 -2.04,-0.703051 -1.23322,0 -2.07458,0.703051 -0.82983,0.703051 -1.25627,1.913221 -0.41491,1.21017 -0.41491,2.754577 0,1.544407 0.41491,2.754577 0.42644,1.21017 1.25627,1.913221 0.84136,0.691525 2.07458,0.691525 z"
         id="path1072" /><path
         d="M 145.06429,54.223461 V 36.520406 h 4.76 v 3.088814 h 0.18441 q 0.48406,-1.648135 1.62508,-2.489492 1.14102,-0.852881 2.6278,-0.852881 0.36881,0 0.79525,0.0461 0.42644,0.0461 0.74916,0.126779 v 4.356611 q -0.34577,-0.103728 -0.95662,-0.184406 -0.61084,-0.08068 -1.11796,-0.08068 -1.08339,0 -1.93627,0.472542 -0.84136,0.461017 -1.33695,1.290848 -0.48407,0.829831 -0.48407,1.913221 v 10.015595 z"
         id="path1074" /><path
         d="m 165.56801,54.569224 q -2.73153,0 -4.70238,-1.106441 -1.95932,-1.117966 -3.01966,-3.157967 -1.06034,-2.051526 -1.06034,-4.852204 0,-2.731526 1.06034,-4.794578 1.06034,-2.063051 2.98509,-3.215594 1.93627,-1.152542 4.54101,-1.152542 1.75187,0 3.2617,0.564746 1.52136,0.55322 2.65085,1.671186 1.14102,1.117967 1.77491,2.812204 0.6339,1.682713 0.6339,3.941696 v 1.348475 h -14.94848 v -3.042712 h 10.32679 q 0,-1.06034 -0.46102,-1.878645 -0.46102,-0.818305 -1.27932,-1.279322 -0.80678,-0.472543 -1.87865,-0.472543 -1.11796,0 -1.98237,0.518644 -0.85288,0.507119 -1.33695,1.371526 -0.48407,0.852882 -0.49559,1.901696 v 2.892882 q 0,1.313898 0.48406,2.270509 0.4956,0.95661 1.39458,1.475254 0.89898,0.518644 2.1322,0.518644 0.81831,0 1.49831,-0.230508 0.68,-0.230509 1.16407,-0.691526 0.48407,-0.461017 0.73763,-1.129492 l 4.54101,0.299662 q -0.34576,1.63661 -1.41762,2.858305 -1.06034,1.21017 -2.74306,1.89017 -1.67118,0.668475 -3.86101,0.668475 z"
         id="path1076" /></g></g><g
     id="layer1"
     transform="matrix(0.49576271,0,0,0.49576271,6.6302125,-30.298287)"><g
       id="g508"
       transform="matrix(0.29558501,0,0,0.29556897,-13.373763,61.016954)"><rect
         x="0"
         y="0.33000001"
         class="st0"
         width="184.25"
         height="184.25"
         id="rect484" /><g
         id="g494">
	<polygon
   class="st1"
   points="160.25,184.59 144.27,143.02 70.22,143.02 55.11,184.59 "
   id="polygon486" />
	<polygon
   class="st1"
   points="132.27,111.8 106.74,43.05 81.72,111.8 "
   id="polygon488" />
	<polygon
   class="st1"
   points="0,0.33 0,184.59 15.44,184.59 87.21,0.33 "
   id="polygon490" />
	<polygon
   class="st1"
   points="184.25,0.33 127.16,0.33 184.25,142.92 "
   id="polygon492" />
</g></g></g><style
     type="text/css"
     id="style482">
	.st0{fill:#FFFFFF;}
	.st1{fill:#C80B19;}
</style></svg>
