<svg id="logo" data-name="logo" xmlns="http://www.w3.org/2000/svg" viewBox="0 0 510.34 85.04"><defs><style>.cls-1{fill:#c80b19;}.cls-2{fill:#1d1d1b;}</style></defs><polygon class="cls-1" points="25.44 85.04 73.96 85.04 66.59 65.85 32.41 65.85 25.44 85.04"/><polygon class="cls-1" points="37.72 51.45 61.05 51.45 49.27 19.72 37.72 51.45"/><polygon class="cls-1" points="40.25 0 0 0 0 85.04 7.13 85.04 40.25 0"/><polygon class="cls-1" points="85.04 65.81 85.04 0 58.69 0 85.04 65.81"/><path class="cls-2" d="M138,33.63V46.28h-10.9V70.7a62.65,62.65,0,0,0,.31,8.64,3.54,3.54,0,0,0,1.42,2,4.45,4.45,0,0,0,2.7.8,20.52,20.52,0,0,0,6.42-1.54l1.36,12.44a31.54,31.54,0,0,1-12.61,2.4A19.86,19.86,0,0,1,118.92,94a11.29,11.29,0,0,1-5.08-3.76A15,15,0,0,1,111.59,84a78.23,78.23,0,0,1-.51-11.3V46.28h-7.32V33.63h7.32V21.46l16-9.36V33.63Z" transform="translate(-8.2 -10.42)"/><path class="cls-2" d="M164.66,95.46H148.44V33.63H163.5v9q3.87-6.21,7-8.18a12.77,12.77,0,0,1,7-2,20.63,20.63,0,0,1,10.68,3.07l-5,14.22a14.22,14.22,0,0,0-7.62-2.67A9,9,0,0,0,169.74,49q-2.37,1.89-3.73,6.82t-1.35,20.65Z" transform="translate(-8.2 -10.42)"/><path class="cls-2" d="M191.38,63.05a32.79,32.79,0,0,1,3.9-15.4,26.86,26.86,0,0,1,11.06-11.37,32.64,32.64,0,0,1,16-3.92q13.63,0,22.35,8.89t8.71,22.49q0,13.7-8.8,22.71t-22.14,9a34.66,34.66,0,0,1-15.76-3.76,25.7,25.7,0,0,1-11.4-11Q191.38,73.46,191.38,63.05Zm16.29.86q0,9,4.25,13.75a13.81,13.81,0,0,0,20.9,0Q237,72.89,237,63.79q0-8.86-4.21-13.64a13.81,13.81,0,0,0-20.9,0Q207.68,54.92,207.67,63.91Z" transform="translate(-8.2 -10.42)"/><path class="cls-2" d="M348.38,63.05a32.79,32.79,0,0,1,3.9-15.4,26.86,26.86,0,0,1,11.06-11.37,32.64,32.64,0,0,1,16-3.92q13.64,0,22.35,8.89t8.71,22.49q0,13.7-8.8,22.71t-22.14,9a34.66,34.66,0,0,1-15.76-3.76,25.7,25.7,0,0,1-11.4-11Q348.38,73.46,348.38,63.05Zm16.29.86q0,9,4.25,13.75a13.81,13.81,0,0,0,20.9,0Q394,72.89,394,63.79q0-8.86-4.21-13.64a13.81,13.81,0,0,0-20.9,0Q364.67,54.92,364.67,63.91Z" transform="translate(-8.2 -10.42)"/><path class="cls-2" d="M437.66,95.46H421.44V33.63H436.5v9q3.87-6.21,7-8.18a12.77,12.77,0,0,1,7-2,20.63,20.63,0,0,1,10.68,3.07l-5,14.22a14.22,14.22,0,0,0-7.62-2.67A9,9,0,0,0,442.74,49q-2.37,1.89-3.73,6.82t-1.35,20.65Z" transform="translate(-8.2 -10.42)"/><path class="cls-2" d="M322.72,63.82l16,5.1q-3.67,13.47-12.25,20t-21.74,6.54q-16.31,0-26.79-11.19t-10.5-30.6q0-20.54,10.55-31.89t27.75-11.36q15,0,24.39,8.92,5.58,5.27,8.37,15.14l-16.35,3.93a17.49,17.49,0,0,0-6.06-10.1,17.28,17.28,0,0,0-11.19-3.7,18.6,18.6,0,0,0-14.77,6.56q-5.65,6.57-5.66,21.26,0,15.6,5.58,22.22a18.09,18.09,0,0,0,14.51,6.61,16.51,16.51,0,0,0,11.33-4.2Q320.66,72.85,322.72,63.82Z" transform="translate(-8.2 -10.42)"/><path class="cls-2" d="M501.88,74.93l15.8,2.66a26,26,0,0,1-9.62,13.3q-6.57,4.56-16.45,4.57-15.63,0-23.13-10.27-5.93-8.22-5.93-20.75,0-15,7.79-23.45A25.57,25.57,0,0,1,490,32.52q13.38,0,21.1,8.87t7.4,27.19H478.8c.12,4.72,1.39,8.4,3.84,11a12,12,0,0,0,9.14,3.94,9.67,9.67,0,0,0,6.26-2A12.56,12.56,0,0,0,501.88,74.93Zm.9-16.1q-.16-6.93-3.55-10.52a11.41,11.41,0,0,0-16.82.2q-3.37,3.8-3.32,10.32Z" transform="translate(-8.2 -10.42)"/></svg>