<?xml version="1.0" encoding="utf-8"?>
<!-- Generator: Adobe Illustrator 24.2.1, SVG Export Plug-In . SVG Version: 6.00 Build 0)  -->
<svg version="1.1" id="logo" xmlns="http://www.w3.org/2000/svg" xmlns:xlink="http://www.w3.org/1999/xlink" x="0px" y="0px"
	 viewBox="0 0 510.3 85" style="enable-background:new 0 0 510.3 85;" xml:space="preserve">
<style type="text/css">
	.st0{fill:#FFFFFF;}
	.st1{fill:#C80B19;}
</style>
<rect y="0" class="st0" width="85" height="85"/>
<polygon class="st1" points="25.4,85 74,85 66.6,65.8 32.4,65.8 "/>
<polygon class="st1" points="37.7,51.4 61,51.4 49.3,19.7 "/>
<polygon class="st1" points="40.3,0 0,0 0,85 7.1,85 "/>
<polygon class="st1" points="85,65.8 85,0 58.7,0 "/>
<path class="st0" d="M129.8,23.2v12.6h-10.9v24.4c-0.1,2.9,0,5.8,0.3,8.6c0.2,0.8,0.7,1.5,1.4,2c0.8,0.6,1.7,0.8,2.7,0.8
	c2.2-0.2,4.4-0.7,6.4-1.5l1.4,12.4c-4,1.7-8.3,2.5-12.6,2.4c-2.7,0-5.3-0.4-7.8-1.4c-2-0.7-3.8-2-5.1-3.8c-1.2-1.9-2-4-2.3-6.2
	c-0.4-3.7-0.6-7.5-0.5-11.3V35.9h-7.3V23.2h7.3V11l16-9.4v21.5H129.8z"/>
<path class="st0" d="M156.5,85h-16.2V23.2h15.1v9c2.6-4.1,4.9-6.9,7-8.2c2.1-1.3,4.5-2,7-2c3.8,0,7.5,1.1,10.7,3.1l-5,14.2
	c-2.2-1.6-4.9-2.5-7.6-2.7c-2.1-0.1-4.2,0.6-5.8,1.9c-1.6,1.3-2.8,3.5-3.7,6.8c-0.9,3.3-1.4,10.2-1.4,20.7V85z"/>
<path class="st0" d="M183.2,52.6c0-5.4,1.4-10.7,3.9-15.4c2.5-4.8,6.3-8.8,11.1-11.4c4.9-2.7,10.4-4,16-3.9c9.1,0,16.5,3,22.4,8.9
	s8.7,13.4,8.7,22.5c0,9.1-2.9,16.7-8.8,22.7s-13.2,9-22.1,9c-5.5,0-10.9-1.3-15.8-3.8c-4.9-2.4-8.9-6.2-11.4-11
	C184.5,65.4,183.2,59.6,183.2,52.6z M199.5,53.5c0,6,1.4,10.6,4.3,13.8c5,5.8,13.7,6.4,19.5,1.4c0.5-0.4,1-0.9,1.4-1.4
	c2.8-3.2,4.2-7.8,4.2-13.9c0-5.9-1.4-10.5-4.2-13.6c-5-5.8-13.7-6.4-19.5-1.4c-0.5,0.4-1,0.9-1.4,1.4
	C200.9,42.9,199.5,47.5,199.5,53.5L199.5,53.5z"/>
<path class="st0" d="M340.2,52.6c0-5.4,1.4-10.7,3.9-15.4c2.5-4.8,6.3-8.8,11.1-11.4c4.9-2.7,10.4-4,16-3.9c9.1,0,16.5,3,22.4,8.9
	s8.7,13.4,8.7,22.5c0,9.1-2.9,16.7-8.8,22.7c-5.9,6-13.2,9-22.1,9c-5.5,0-10.9-1.3-15.8-3.8c-4.9-2.4-8.9-6.2-11.4-11
	C341.5,65.4,340.2,59.6,340.2,52.6z M356.5,53.5c0,6,1.4,10.6,4.3,13.8c5,5.8,13.7,6.4,19.5,1.4c0.5-0.4,1-0.9,1.4-1.4
	c2.8-3.2,4.2-7.8,4.2-13.9c0-5.9-1.4-10.5-4.2-13.6c-5-5.8-13.7-6.4-19.5-1.4c-0.5,0.4-1,0.9-1.4,1.4
	C357.9,42.9,356.5,47.5,356.5,53.5z"/>
<path class="st0" d="M429.5,85h-16.2V23.2h15.1v9c2.6-4.1,4.9-6.9,7-8.2c2.1-1.3,4.5-2,7-2c3.8,0,7.5,1.1,10.7,3.1l-5,14.2
	c-2.2-1.6-4.9-2.5-7.6-2.7c-2.1-0.1-4.2,0.6-5.8,1.9c-1.6,1.3-2.8,3.5-3.7,6.8c-0.9,3.3-1.4,10.2-1.4,20.7L429.5,85z"/>
<path class="st0" d="M314.5,53.4l16,5.1c-2.4,9-6.5,15.6-12.3,20c-5.7,4.4-13,6.5-21.7,6.5c-10.9,0-19.8-3.7-26.8-11.2
	c-7-7.5-10.5-17.7-10.5-30.6c0-13.7,3.5-24.3,10.5-31.9S286.1,0,297.5,0c10,0,18.1,3,24.4,8.9c3.7,3.5,6.5,8.6,8.4,15.1L313.9,28
	c-0.8-4-2.9-7.5-6.1-10.1c-3.2-2.5-7.1-3.8-11.2-3.7c-5.7-0.2-11.1,2.2-14.8,6.6c-3.8,4.4-5.7,11.5-5.7,21.3
	c0,10.4,1.9,17.8,5.6,22.2c3.6,4.3,8.9,6.8,14.5,6.6c4.2,0.1,8.2-1.4,11.3-4.2C310.9,63.8,313.1,59.4,314.5,53.4z"/>
<path class="st0" d="M493.7,64.5l15.8,2.7c-1.7,5.4-5.1,10-9.6,13.3c-4.4,3-9.9,4.6-16.5,4.6c-10.4,0-18.1-3.4-23.1-10.3
	c-4-5.5-5.9-12.4-5.9-20.8c0-10,2.6-17.8,7.8-23.5c5-5.6,12.2-8.7,19.7-8.5c8.9,0,16,3,21.1,8.9c5.1,5.9,7.6,15,7.4,27.2h-39.7
	c0.1,4.7,1.4,8.4,3.8,11c2.3,2.6,5.7,4,9.1,3.9c2.3,0.1,4.5-0.6,6.3-2C491.8,69.4,493.1,67.1,493.7,64.5z M494.6,48.4
	c-0.1-4.6-1.3-8.1-3.5-10.5c-4.3-4.6-11.5-4.8-16.1-0.5c-0.2,0.2-0.5,0.5-0.7,0.7c-2.2,2.5-3.4,6-3.3,10.3H494.6z"/>
</svg>
