<svg id="logo" data-name="logo" xmlns="http://www.w3.org/2000/svg" viewBox="0 0 481.13 82.13"><defs><style>.cls-1{fill:#fff;}.cls-2{fill:#c80b19;}</style></defs><rect class="cls-1" y="1.76" width="78.83" height="78.83"/><polygon class="cls-2" points="23.58 80.6 68.57 80.6 61.73 62.81 30.04 62.81 23.58 80.6"/><polygon class="cls-2" points="34.96 49.45 56.59 49.45 45.67 20.04 34.96 49.45"/><polygon class="cls-2" points="37.31 1.76 0 1.76 0 80.6 6.61 80.6 37.31 1.76"/><polygon class="cls-2" points="78.83 62.77 78.83 1.76 54.41 1.76 78.83 62.77"/><path class="cls-1" d="M125,32.68V44.81H114.68V68a57.32,57.32,0,0,0,.3,8.21,3.31,3.31,0,0,0,1.35,1.92,4.22,4.22,0,0,0,2.56.76A19.65,19.65,0,0,0,125,77.43l1.29,11.81a30.09,30.09,0,0,1-12,2.27,18.89,18.89,0,0,1-7.38-1.38,10.85,10.85,0,0,1-4.83-3.57A14.37,14.37,0,0,1,100,80.62a74.85,74.85,0,0,1-.48-10.72V44.81h-7V32.68h7V21.24l15.2-8.88V32.68Z" transform="translate(-4.05 -9.43)"/><path class="cls-1" d="M150.05,90.21H134.9V32.68H149v8.18q3.61-5.8,6.5-7.64A11.87,11.87,0,0,1,162,31.38a19.09,19.09,0,0,1,10,2.87L167.3,47.52A13.24,13.24,0,0,0,160.18,45a8.41,8.41,0,0,0-5.39,1.76c-1.47,1.17-2.63,3.3-3.47,6.36s-1.27,9.5-1.27,19.29Z" transform="translate(-4.05 -9.43)"/><path class="cls-1" d="M175,60.63A31.22,31.22,0,0,1,178.73,46a25.64,25.64,0,0,1,10.54-10.84,31.17,31.17,0,0,1,15.23-3.73q13,0,21.29,8.47t8.31,21.43q0,13.06-8.39,21.65t-21.1,8.58a33.2,33.2,0,0,1-15-3.57,24.49,24.49,0,0,1-10.86-10.49Q175,70.55,175,60.63Zm15.53.81q0,8.57,4,13.11a13.16,13.16,0,0,0,19.92,0q4-4.55,4-13.21,0-8.46-4-13a13.18,13.18,0,0,0-19.92,0Q190.53,52.89,190.54,61.44Z" transform="translate(-4.05 -9.43)"/><path class="cls-1" d="M296.64,61l15.47,4.93q-3.56,13-11.83,19.32t-21,6.31q-15.75,0-25.88-10.81T243.26,51.2q0-19.82,10.19-30.8t26.8-11q14.5,0,23.56,8.62,5.38,5.09,8.08,14.63L296.1,36.47a16.88,16.88,0,0,0-5.85-9.75,16.69,16.69,0,0,0-10.81-3.58,17.93,17.93,0,0,0-14.26,6.34Q259.7,35.81,259.71,50q0,15.06,5.39,21.46a17.46,17.46,0,0,0,14,6.39,15.94,15.94,0,0,0,10.95-4.06Q294.64,69.74,296.64,61Z" transform="translate(-4.05 -9.43)"/><path class="cls-1" d="M322.19,60.63A31.22,31.22,0,0,1,325.91,46a25.64,25.64,0,0,1,10.54-10.84,31.17,31.17,0,0,1,15.23-3.73q13,0,21.3,8.47t8.3,21.43q0,13.06-8.38,21.65t-21.11,8.58a33.2,33.2,0,0,1-15-3.57,24.49,24.49,0,0,1-10.86-10.49Q322.19,70.55,322.19,60.63Zm15.53.81q0,8.57,4,13.11a13.16,13.16,0,0,0,19.92,0q4-4.55,4-13.21,0-8.46-4-13a13.18,13.18,0,0,0-19.92,0Q337.73,52.89,337.72,61.44Z" transform="translate(-4.05 -9.43)"/><path class="cls-1" d="M407.64,90.21H392.49V32.68h14.07v8.18q3.62-5.8,6.5-7.64a11.89,11.89,0,0,1,6.55-1.84,19.07,19.07,0,0,1,10,2.87l-4.69,13.27A13.24,13.24,0,0,0,417.78,45a8.39,8.39,0,0,0-5.39,1.76c-1.48,1.17-2.64,3.3-3.48,6.36s-1.27,9.5-1.27,19.29Z" transform="translate(-4.05 -9.43)"/><path class="cls-1" d="M469.26,71.9l15.1,2.55a24.86,24.86,0,0,1-9.19,12.7q-6.29,4.36-15.72,4.36-14.93,0-22.1-9.8-5.67-7.86-5.66-19.83,0-14.31,7.44-22.41a24.46,24.46,0,0,1,18.81-8.09q12.78,0,20.17,8.47t7.06,26h-38q.17,6.78,3.67,10.54a11.45,11.45,0,0,0,8.73,3.77,9.2,9.2,0,0,0,6-2A12,12,0,0,0,469.26,71.9Zm.87-15.39q-.17-6.6-3.4-10a10.9,10.9,0,0,0-16.07.19q-3.23,3.63-3.18,9.86Z" transform="translate(-4.05 -9.43)"/></svg>