<?xml version="1.0" encoding="utf-8"?>
<!-- Generator: Adobe Illustrator 23.0.1, SVG Export Plug-In . SVG Version: 6.00 Build 0)  -->
<svg version="1.1" id="Слой_1" xmlns="http://www.w3.org/2000/svg" xmlns:xlink="http://www.w3.org/1999/xlink" x="0px" y="0px"
	 viewBox="0 0 442 91.4" style="enable-background:new 0 0 442 91.4;" xml:space="preserve">
<style type="text/css">
	.st0{fill:#C6021D;}
	.st1{fill:#FFFFFF;}
	.st2{fill:#E8E8E8;}
</style>
<g>
	<polygon class="st0" points="247.1,10.1 101.7,10.1 101.7,81.5 266.2,81.5 266.2,29.3 	"/>
	<g>
		<path class="st1" d="M149.1,18.7h-34.9c-0.5,0-1,0.3-1.2,0.7l-4.4,7.9c-0.2,0.4-0.2,0.9,0,1.4c0.2,0.4,0.7,0.7,1.2,0.7h14v39.2
			c0,0.8,0.6,1.4,1.4,1.4h8.6c0.8,0,1.4-0.6,1.4-1.4V29.3h14c0.8,0,1.4-0.6,1.4-1.4V20C150.4,19.3,149.8,18.7,149.1,18.7z"/>
		<path class="st1" d="M179.4,31.3c-0.1-0.4-0.5-0.7-0.9-0.8c-1.6-0.5-3.3-0.7-5.1-0.7c-4.7-0.2-8.7,1.6-11.6,5.2v-3.2
			c0-0.8-0.6-1.4-1.4-1.4h-8.4c-0.8,0-1.4,0.6-1.4,1.4v36.5c0,0.8,0.6,1.4,1.4,1.4h8.4c0.8,0,1.4-0.6,1.4-1.4V54.5
			c0-8.3,4-13.1,11.1-13.1h0.5c0.5,0,1-0.3,1.2-0.7c0-0.1,2.8-5.2,4.6-8.2C179.5,32.2,179.5,31.7,179.4,31.3z"/>
		<path class="st1" d="M195.3,29.8c-11,0-19.2,8.8-19.2,20.4c0,11.9,8.5,20.5,20.1,20.5c6.6,0,11.9-2.5,16-7.3
			c0.5-0.6,0.4-1.4-0.1-1.9l-4.9-4.4c-0.5-0.5-1.3-0.5-1.9,0c-2.9,2.8-5.5,4-8.9,4c-4.4,0-7.6-2.4-8.8-6.5h25.1
			c0.7,0,1.2-0.5,1.3-1.1c0.1-0.6,0.2-2.1,0.2-2.6C214.2,40.4,208.3,29.8,195.3,29.8z M195.3,39.4c4,0,6.8,2.5,7.7,6.9h-15.5
			C188.5,42,191.4,39.4,195.3,39.4z"/>
		<path class="st1" d="M238.8,29.8c-11.7,0-20.9,9-20.9,20.5c0,11.4,9.1,20.4,20.7,20.4c11.7,0,20.9-9,20.9-20.4
			C259.6,38.8,250.4,29.8,238.8,29.8z M238.8,60.7c-5.5,0-9.8-4.6-9.8-10.4c0-6.1,4-10.4,9.6-10.4c5.6,0,9.8,4.5,9.8,10.4
			C248.5,56.3,244.4,60.7,238.8,60.7z"/>
	</g>
</g>
<g>
	<path class="st2" d="M317.1,56.3c-0.4-0.4-1.1-0.4-1.5,0c-2.2,2.1-4.4,3.7-6.5,4.7c-2,1-4.4,1.5-7.1,1.5c-4.4,0-8-1.6-10.9-4.8
		c-2.9-3.2-4.4-7.2-4.4-11.8c0-3.1,0.7-5.9,2-8.5c1.3-2.5,3.1-4.5,5.5-6c2.3-1.5,5-2.2,7.8-2.2c2.5,0,4.8,0.5,6.9,1.5
		c2.1,1,4.2,2.5,6.3,4.4c0.2,0.2,0.5,0.3,0.8,0.3c0.3,0,0.6-0.2,0.8-0.4l5.6-6.5c0.4-0.4,0.3-1.1-0.1-1.5c-2.7-2.6-5.6-4.5-8.8-5.9
		c-3.2-1.4-7-2.1-11.4-2.1c-3.8,0-7.4,0.7-10.7,2.1c-3.3,1.4-6.2,3.3-8.5,5.7c-2.3,2.4-4.1,5.3-5.5,8.5c-1.3,3.3-2,6.8-2,10.4
		c0,4.9,1.1,9.5,3.4,13.5c2.3,4.1,5.5,7.3,9.5,9.7c4,2.3,8.5,3.5,13.4,3.5c3.1,0,6-0.4,8.5-1.2c2.6-0.8,4.8-1.8,6.7-3.1
		c1.9-1.3,3.8-2.9,5.7-4.8c0.4-0.4,0.4-1.1,0-1.5L317.1,56.3z"/>
	<path class="st2" d="M356.6,34.1c-3.2-1.8-6.8-2.8-10.8-2.8c-3.9,0-7.5,0.9-10.8,2.8c-3.2,1.9-5.8,4.4-7.6,7.5
		c-1.8,3.1-2.7,6.6-2.7,10.3c0,3.7,0.9,7.2,2.7,10.4c1.8,3.1,4.3,5.7,7.5,7.5c3.2,1.8,6.8,2.8,10.7,2.8c3,0,5.8-0.6,8.4-1.6
		c2.6-1.1,4.9-2.6,6.7-4.5c1.8-1.9,3.3-4.1,4.4-6.6c1.1-2.5,1.6-5.2,1.6-8c0-3.7-0.9-7.2-2.7-10.4C362.4,38.4,359.8,35.9,356.6,34.1
		z M345.7,40.9c3,0,5.5,1,7.4,3.2c2,2.2,3,4.7,3,7.8c0,3.2-0.9,5.7-2.8,7.9c-1.9,2.1-4.3,3.1-7.4,3.1c-3,0-5.4-1-7.4-3.2
		c-2-2.2-3-4.8-3-7.8c0-3.2,0.9-5.8,2.8-7.9C340.2,42,342.6,40.9,345.7,40.9z"/>
	<path class="st2" d="M394.2,31.4h-0.7c-3.1,0-5.7,0.8-8,2.5c-1.3,1-2.5,2.2-3.5,3.6v-4.2c0-0.6-0.5-1.1-1.1-1.1h-8.6
		c-0.6,0-1.1,0.5-1.1,1.1v37.5c0,0.6,0.5,1.1,1.1,1.1h8.6c0.6,0,1.1-0.5,1.1-1.1V56.4c0-4.5,1.1-8,3.2-10.3c2.1-2.3,4.9-3.4,8.5-3.4
		h0.5c0.6,0,1.1-0.5,1.1-1.1v-9.1C395.3,31.9,394.8,31.4,394.2,31.4z"/>
	<path class="st2" d="M434.1,46.1c-0.5-2.1-1.3-4-2.3-5.8c-1-1.8-2.3-3.4-3.8-4.7c-1.5-1.3-3.3-2.4-5.4-3.1
		c-2.1-0.7-4.4-1.1-6.8-1.1c-3.7,0-7,0.9-10,2.8c-3,1.8-5.3,4.4-6.9,7.5c-1.6,3.1-2.4,6.6-2.4,10.3c0,4,0.9,7.6,2.7,10.8
		c1.8,3.2,4.3,5.6,7.3,7.3c3.1,1.7,6.5,2.6,10.3,2.6c6.7,0,12.1-2.5,16.2-7.4c0.4-0.4,0.3-1.1-0.1-1.5l-5.1-4.5
		c-0.4-0.4-1.1-0.4-1.5,0c-1.5,1.4-2.9,2.5-4.4,3.2c-1.4,0.7-3.1,1-5,1c-2.6,0-4.7-0.7-6.5-2.3c-1.5-1.3-2.5-3-3-5.1h26.2
		c0.5,0,1-0.4,1.1-0.9c0.1-0.6,0.2-1.5,0.2-2.6C434.8,50.3,434.6,48.2,434.1,46.1z M415.7,40.5c2.4,0,4.3,0.8,5.8,2.4
		c1.3,1.4,2.1,3.2,2.5,5.3h-16.7c0.5-2.2,1.4-3.9,2.7-5.3C411.5,41.3,413.4,40.5,415.7,40.5z"/>
</g>
<g>
	<g>
		<g>
			<g>
				<polygon class="st2" points="22.7,23.6 5.7,34.1 22.7,44.8 39.6,34.1 				"/>
			</g>
		</g>
		<g>
			<g>
				<polygon class="st2" points="42.5,10.7 25.5,21.3 42.5,31.9 59.3,21.3 				"/>
			</g>
		</g>
		<g>
			<g>
				<polygon class="st2" points="62.2,23.6 45.2,34.1 62.2,44.8 79.1,34.1 				"/>
			</g>
		</g>
	</g>
	<g>
		<polygon class="st2" points="42.4,72.6 12.4,54.7 5.7,58.5 42.4,81 79.1,58.5 72.1,54.7 		"/>
		<polygon class="st2" points="79.1,46.7 72.1,42.8 62,49 42.5,36.8 22.7,49 12.4,42.8 5.7,46.7 42.4,69.1 		"/>
	</g>
</g>
</svg>
