<svg xmlns="http://www.w3.org/2000/svg">
    <symbol id="star" viewBox="0 -960 960 960" width="20px" height="20px">
        <path d="m305-704 112-145q12-16 28.5-23.5T480-880q18 0 34.5 7.5T543-849l112 145 170 57q26 8 41 29.5t15 47.5q0 12-3.5 24T866-523L756-367l4 164q1 35-23 59t-56 24q-2 0-22-3l-179-50-179 50q-5 2-11 2.5t-11 .5q-32 0-56-24t-23-59l4-165L95-523q-8-11-11.5-23T80-570q0-25 14.5-46.5T135-647l170-57Zm49 69-194 64 124 179-4 191 200-55 200 56-4-192 124-177-194-66-126-165-126 165Zm126 135Z"/>
    </symbol>

    <symbol id="bookmark" viewBox="0 -960 960 960">
        <path d="M200-120v-640q0-33 23.5-56.5T280-840h400q33 0 56.5 23.5T760-760v640L480-240 200-120Zm80-122 200-86 200 86v-518H280v518Zm0-518h400-400Z"/>
    </symbol>

    <symbol id="search" viewBox="0 -960 960 960">
        <path d="M784-120 532-372q-30 24-69 38t-83 14q-109 0-184.5-75.5T120-580q0-109 75.5-184.5T380-840q109 0 184.5 75.5T640-580q0 44-14 83t-38 69l252 252-56 56ZM380-400q75 0 127.5-52.5T560-580q0-75-52.5-127.5T380-760q-75 0-127.5 52.5T200-580q0 75 52.5 127.5T380-400Z"/>
    </symbol>

    <symbol id="history" viewBox="0 -960 960 960">
        <path d="M480-120q-138 0-240.5-91.5T122-440h82q14 104 92.5 172T480-200q117 0 198.5-81.5T760-480q0-117-81.5-198.5T480-760q-69 0-129 32t-101 88h110v80H120v-240h80v94q51-64 124.5-99T480-840q75 0 140.5 28.5t114 77q48.5 48.5 77 114T840-480q0 75-28.5 140.5t-77 114q-48.5 48.5-114 77T480-120Zm112-192L440-464v-216h80v184l128 128-56 56Z"/>
    </symbol>

    <symbol id="tasks" viewBox="0 -960 960 960">
        <path d="M222-200 80-342l56-56 85 85 170-170 56 57-225 226Zm0-320L80-662l56-56 85 85 170-170 56 57-225 226Zm298 240v-80h360v80H520Zm0-320v-80h360v80H520Z"/>
    </symbol>

    <symbol id="bell" viewBox="0 -960 960 960">
        <path d="M160-200v-80h80v-280q0-83 50-147.5T420-792v-28q0-25 17.5-42.5T480-880q25 0 42.5 17.5T540-820v28q80 20 130 84.5T720-560v280h80v80H160Zm320-300Zm0 420q-33 0-56.5-23.5T400-160h160q0 33-23.5 56.5T480-80ZM320-280h320v-280q0-66-47-113t-113-47q-66 0-113 47t-47 113v280Z"/>
    </symbol>

    <symbol id="user" viewBox="0 -960 960 960">
        <path d="M480-480q-66 0-113-47t-47-113q0-66 47-113t113-47q66 0 113 47t47 113q0 66-47 113t-113 47ZM160-160v-112q0-34 17.5-62.5T224-378q62-31 126-46.5T480-440q66 0 130 15.5T736-378q29 15 46.5 43.5T800-272v112H160Zm80-80h480v-32q0-11-5.5-20T700-306q-54-27-109-40.5T480-360q-56 0-111 13.5T260-306q-9 5-14.5 14t-5.5 20v32Zm240-320q33 0 56.5-23.5T560-640q0-33-23.5-56.5T480-720q-33 0-56.5 23.5T400-640q0 33 23.5 56.5T480-560Zm0-80Zm0 400Z"/>
    </symbol>

    <symbol id="thumb-tack" viewBox="0 -960 960 960">
        <path d="m640-480 80 80v80H520v240l-40 40-40-40v-240H240v-80l80-80v-280h-40v-80h400v80h-40v280Zm-286 80h252l-46-46v-314H400v314l-46 46Zm126 0Z"/>
    </symbol>

    <symbol id="th-list" viewBox="0 -960 960 960">
        <path d="M80-160v-160h160v160H80Zm240 0v-160h560v160H320ZM80-400v-160h160v160H80Zm240 0v-160h560v160H320ZM80-640v-160h160v160H80Zm240 0v-160h560v160H320Z"/>
    </symbol>

    <symbol id="bars" viewBox="0 -960 960 960">
        <path d="M120-240v-80h720v80H120Zm0-200v-80h720v80H120Zm0-200v-80h720v80H120Z"/>
    </symbol>

    <symbol id="angle-left" viewBox="0 -960 960 960">
        <path d="M560-240 320-480l240-240 56 56-184 184 184 184-56 56Z"/>
    </symbol>

    <symbol id="angle-right" viewBox="0 -960 960 960">
        <path d="M504-480 320-664l56-56 240 240-240 240-56-56 184-184Z"/>
    </symbol>

    <symbol id="question-circle" viewBox="0 -960 960 960">
        <path d="M478-240q21 0 35.5-14.5T528-290q0-21-14.5-35.5T478-340q-21 0-35.5 14.5T428-290q0 21 14.5 35.5T478-240Zm-36-154h74q0-33 7.5-52t42.5-52q26-26 41-49.5t15-56.5q0-56-41-86t-97-30q-57 0-92.5 30T342-618l66 26q5-18 22.5-39t53.5-21q32 0 48 17.5t16 38.5q0 20-12 37.5T506-526q-44 39-54 59t-10 73Zm38 314q-83 0-156-31.5T197-197q-54-54-85.5-127T80-480q0-83 31.5-156T197-763q54-54 127-85.5T480-880q83 0 156 31.5T763-763q54 54 85.5 127T880-480q0 83-31.5 156T763-197q-54 54-127 85.5T480-80Zm0-80q134 0 227-93t93-227q0-134-93-227t-227-93q-134 0-227 93t-93 227q0 134 93 227t227 93Zm0-320Z"/>
    </symbol>

    <symbol id="cog" viewBox="0 -960 960 960">
        <path d="m370-80-16-128q-13-5-24.5-12T307-235l-119 50L78-375l103-78q-1-7-1-13.5v-27q0-6.5 1-13.5L78-585l110-190 119 50q11-8 23-15t24-12l16-128h220l16 128q13 5 24.5 12t22.5 15l119-50 110 190-103 78q1 7 1 13.5v27q0 6.5-2 13.5l103 78-110 190-118-50q-11 8-23 15t-24 12L590-80H370Zm70-80h79l14-106q31-8 57.5-23.5T639-327l99 41 39-68-86-65q5-14 7-29.5t2-31.5q0-16-2-31.5t-7-29.5l86-65-39-68-99 42q-22-23-48.5-38.5T533-694l-13-106h-79l-14 106q-31 8-57.5 23.5T321-633l-99-41-39 68 86 64q-5 15-7 30t-2 32q0 16 2 31t7 30l-86 65 39 68 99-42q22 23 48.5 38.5T427-266l13 106Zm42-180q58 0 99-41t41-99q0-58-41-99t-99-41q-59 0-99.5 41T342-480q0 58 40.5 99t99.5 41Zm-2-140Z"/>
    </symbol>

    <symbol id="pencil-alt" viewBox="0 -960 960 960">
        <path d="M200-200h57l391-391-57-57-391 391v57Zm-80 80v-170l528-527q12-11 26.5-17t30.5-6q16 0 31 6t26 18l55 56q12 11 17.5 26t5.5 30q0 16-5.5 30.5T817-647L290-120H120Zm640-584-56-56 56 56Zm-141 85-28-29 57 57-29-28Z"/>
    </symbol>

    <symbol id="asterisk" viewBox="0 -960 960 960">
        <path d="M440-120v-264L254-197l-57-57 187-186H120v-80h264L197-706l57-57 186 187v-264h80v264l186-187 57 57-187 186h264v80H576l187 186-57 57-186-187v264h-80Z"/>
    </symbol>

    <symbol id="clock" viewBox="0 -960 960 960">
        <path d="m612-292 56-56-148-148v-184h-80v216l172 172ZM480-80q-83 0-156-31.5T197-197q-54-54-85.5-127T80-480q0-83 31.5-156T197-763q54-54 127-85.5T480-880q83 0 156 31.5T763-763q54 54 85.5 127T880-480q0 83-31.5 156T763-197q-54 54-127 85.5T480-80Zm0-400Zm0 320q133 0 226.5-93.5T800-480q0-133-93.5-226.5T480-800q-133 0-226.5 93.5T160-480q0 133 93.5 226.5T480-160Z"/>
    </symbol>

    <symbol id="redo-alt" viewBox="0 -960 960 960">
        <path d="M396-200q-97 0-166.5-63T160-420q0-94 69.5-157T396-640h252L544-744l56-56 200 200-200 200-56-56 104-104H396q-63 0-109.5 40T240-420q0 60 46.5 100T396-280h284v80H396Z"/>
    </symbol>

    <symbol id="sync" viewBox="0 -960 960 960">
        <path d="M160-160v-80h110l-16-14q-52-46-73-105t-21-119q0-111 66.5-197.5T400-790v84q-72 26-116 88.5T240-478q0 45 17 87.5t53 78.5l10 10v-98h80v240H160Zm400-10v-84q72-26 116-88.5T720-482q0-45-17-87.5T650-648l-10-10v98h-80v-240h240v80H690l16 14q49 49 71.5 106.5T800-482q0 111-66.5 197.5T560-170Z"/>
    </symbol>

    <symbol id="arrow-alt-circle-down" viewBox="0 -960 960 960">
        <path d="m480-320 160-160-56-56-64 64v-168h-80v168l-64-64-56 56 160 160Zm0 240q-83 0-156-31.5T197-197q-54-54-85.5-127T80-480q0-83 31.5-156T197-763q54-54 127-85.5T480-880q83 0 156 31.5T763-763q54 54 85.5 127T880-480q0 83-31.5 156T763-197q-54 54-127 85.5T480-80Zm0-80q134 0 227-93t93-227q0-134-93-227t-227-93q-134 0-227 93t-93 227q0 134 93 227t227 93Zm0-320Z"/>
    </symbol>
</svg>
