<svg id="Layer_1" data-name="Layer 1" xmlns="http://www.w3.org/2000/svg" viewBox="0 0 122.88 122.88"><title>b-alphabet</title><path d="M21.47,0h81.58a19.79,19.79,0,0,1,14,5.82l.32.35a19.79,19.79,0,0,1,5.5,13.66v83.22a19.91,19.91,0,0,1-19.83,19.83H19.83A19.91,19.91,0,0,1,0,103.05V21.47A21.56,21.56,0,0,1,21.47,0ZM39.69,89.08V33.8H68.34c5.31,0,9.09,1,11.37,3.1s3.4,5.07,3.4,9-.72,7-2.17,9.15a9.91,9.91,0,0,1-5.79,4.21v.53q10.69,1.84,10.7,14.58,0,6.64-3.54,10.66t-10.88,4Zm24.58-22.5h-6.9V77h6.81c2.48,0,3.71-2.46,3.71-5.46s-1.21-5-3.62-5ZM63,45H57.37v9.67h5.49c2.24,0,3.36-1.84,3.36-4.59S65.11,45,63,45Zm40.1-34.84H21.47A11.37,11.37,0,0,0,10.11,21.47v81.58a9.77,9.77,0,0,0,9.72,9.72h83.22a9.73,9.73,0,0,0,9.72-9.72V19.83a9.73,9.73,0,0,0-2.62-6.64l-.24-.22a9.69,9.69,0,0,0-6.86-2.86Z"/></svg>