<svg id="Layer_1" data-name="Layer 1" xmlns="http://www.w3.org/2000/svg" viewBox="0 0 122.88 122.88"><title>c-alphabet</title><path d="M21.47,0h81.58a19.79,19.79,0,0,1,14,5.82l.32.35a19.79,19.79,0,0,1,5.5,13.66v83.22a19.91,19.91,0,0,1-19.83,19.83H19.83A19.91,19.91,0,0,1,0,103.05V21.47A21.56,21.56,0,0,1,21.47,0Zm59,73.25L81.78,88.1a36.66,36.66,0,0,1-14,2.3,42.08,42.08,0,0,1-13.49-1.77,16.61,16.61,0,0,1-8-5.57,22.52,22.52,0,0,1-4.08-8.93A59.33,59.33,0,0,1,41.1,61.48,59.9,59.9,0,0,1,42.25,48.8a22.61,22.61,0,0,1,4.08-9Q52,32.49,67.11,32.48a56.3,56.3,0,0,1,7.91.66,27.61,27.61,0,0,1,6.76,1.64L79.13,48.31A50,50,0,0,0,68.6,47.07c-3.18,0-5.38.29-6.63.88s-1.85,1.77-1.85,3.54V74.66a34.75,34.75,0,0,0,7,.71,39.08,39.08,0,0,0,13.35-2.12Zm22.59-63.14H21.47A11.37,11.37,0,0,0,10.11,21.47v81.58a9.77,9.77,0,0,0,9.72,9.72h83.22a9.73,9.73,0,0,0,9.72-9.72V19.83a9.73,9.73,0,0,0-2.62-6.64l-.24-.22a9.69,9.69,0,0,0-6.86-2.86Z"/></svg>