<svg id="Layer_1" data-name="Layer 1" xmlns="http://www.w3.org/2000/svg" viewBox="0 0 122.88 122.88"><title>d-alphabet</title><path d="M21.47,0h81.58a19.79,19.79,0,0,1,14,5.82l.32.35a19.79,19.79,0,0,1,5.5,13.66v83.22a19.91,19.91,0,0,1-19.83,19.83H19.83A19.91,19.91,0,0,1,0,103.05V21.47A21.56,21.56,0,0,1,21.47,0ZM36,89.08V33.8H60.78q14.94,0,20.51,6.37t5.58,21.27q0,14.9-5.58,21.27T60.78,89.08ZM61,48H53.7v27H61a12.42,12.42,0,0,0,5.27-.84c1.08-.56,1.63-1.84,1.63-3.85V52.64c0-2-.55-3.28-1.63-3.84A12.24,12.24,0,0,0,61,48Zm42-37.84H21.47A11.37,11.37,0,0,0,10.11,21.47v81.58a9.77,9.77,0,0,0,9.72,9.72h83.22a9.73,9.73,0,0,0,9.72-9.72V19.83a9.73,9.73,0,0,0-2.62-6.64l-.24-.22a9.69,9.69,0,0,0-6.86-2.86Z"/></svg>