<svg id="Layer_1" data-name="Layer 1" xmlns="http://www.w3.org/2000/svg" viewBox="0 0 122.88 122.88"><title>n-alphabet</title><path d="M21.47,0h81.58a19.79,19.79,0,0,1,14,5.82l.32.35a19.79,19.79,0,0,1,5.5,13.66v83.22a19.91,19.91,0,0,1-19.83,19.83H19.83A19.91,19.91,0,0,1,0,103.05V21.47A21.56,21.56,0,0,1,21.47,0ZM69.36,89.08,55.83,69.45c-.47-.65-.77-2.07-.89-4.25h-.35V89.08H36.9V33.8H53.52L67.05,53.44c.47.64.77,2.06.89,4.24h.35V33.8H86V89.08Zm33.69-79H21.47A11.37,11.37,0,0,0,10.11,21.47v81.58a9.77,9.77,0,0,0,9.72,9.72h83.22a9.73,9.73,0,0,0,9.72-9.72V19.83a9.73,9.73,0,0,0-2.62-6.64l-.24-.22a9.69,9.69,0,0,0-6.86-2.86Z"/></svg>