<svg id="Layer_1" data-name="Layer 1" xmlns="http://www.w3.org/2000/svg" viewBox="0 0 122.88 122.88"><title>o-alphabet</title><path d="M21.47,0h81.58a19.79,19.79,0,0,1,14,5.82l.32.35a19.79,19.79,0,0,1,5.5,13.66v83.22a19.91,19.91,0,0,1-19.83,19.83H19.83A19.91,19.91,0,0,1,0,103.05V21.47A21.56,21.56,0,0,1,21.47,0ZM35.36,61.48c0-10.08,1.89-18.4,5.66-23s10.58-6.94,20.42-6.94,16.67,2.32,20.43,6.94,5.66,12.95,5.66,23a66.87,66.87,0,0,1-1.19,13.61A23,23,0,0,1,82.22,84a16.68,16.68,0,0,1-8,5.58,39.68,39.68,0,0,1-12.74,1.77,39.74,39.74,0,0,1-12.73-1.77A16.71,16.71,0,0,1,40.66,84a22.94,22.94,0,0,1-4.11-8.92,66.87,66.87,0,0,1-1.19-13.61Zm19-10.16V76.24h7.34A12.28,12.28,0,0,0,67,75.4c1.08-.55,1.64-1.85,1.64-3.85V46.64H61.18a12.06,12.06,0,0,0-5.17.84c-1.08.54-1.64,1.86-1.64,3.84Zm48.68-41.21H21.47A11.37,11.37,0,0,0,10.11,21.47v81.58a9.77,9.77,0,0,0,9.72,9.72h83.22a9.73,9.73,0,0,0,9.72-9.72V19.83a9.73,9.73,0,0,0-2.62-6.64l-.24-.22a9.69,9.69,0,0,0-6.86-2.86Z"/></svg>