<svg id="Layer_1" data-name="Layer 1" xmlns="http://www.w3.org/2000/svg" viewBox="0 0 122.88 122.88"><title>p-alphabet</title><path d="M21.47,0h81.58a19.79,19.79,0,0,1,14,5.82l.32.35a19.79,19.79,0,0,1,5.5,13.66v83.22a19.91,19.91,0,0,1-19.83,19.83H19.83A19.91,19.91,0,0,1,0,103.05V21.47A21.56,21.56,0,0,1,21.47,0ZM69,75.73H57.46V89.55H39.78V33.32H67.63c12.68,0,19,7.29,19,20.91q0,11.24-5,16.63a14.65,14.65,0,0,1-5.12,3.45A19.13,19.13,0,0,1,69,75.73ZM57.46,47.47v14.1h4.07a12.1,12.1,0,0,0,4.65-.66c1-.44,1.45-1.46,1.45-3V51.18c0-1.58-.48-2.6-1.45-3a12.1,12.1,0,0,0-4.65-.66Zm45.59-37.36H21.47A11.37,11.37,0,0,0,10.11,21.47v81.58a9.77,9.77,0,0,0,9.72,9.72h83.22a9.73,9.73,0,0,0,9.72-9.72V19.83a9.73,9.73,0,0,0-2.62-6.64l-.24-.22a9.69,9.69,0,0,0-6.86-2.86Z"/></svg>