<svg id="Layer_1" data-name="Layer 1" xmlns="http://www.w3.org/2000/svg" viewBox="0 0 122.88 122.88"><title>q-alphabet</title><path d="M21.47,0h81.58a19.79,19.79,0,0,1,14,5.82l.32.35a19.79,19.79,0,0,1,5.5,13.66v83.22a19.91,19.91,0,0,1-19.83,19.83H19.83A19.91,19.91,0,0,1,0,103.05V21.47A21.56,21.56,0,0,1,21.47,0ZM66.8,85.49l-7.52,2q-14.85,0-20-7.6a24,24,0,0,1-3.71-8.54,52.93,52.93,0,0,1-1.07-11.45q0-15.12,5.67-22.07t20.34-6.94q14.67,0,20.42,7t5.75,22q0,11.24-4.69,18.13l6.37,3.71L83.77,92l-17-3.09V85.49ZM53.53,73.74h7.34a12.18,12.18,0,0,0,5.26-.84c1.09-.56,1.64-1.85,1.64-3.85v-23H60.34a12,12,0,0,0-5.18.84c-1.09.55-1.63,1.84-1.63,3.84v23Zm49.52-63.63H21.47A11.37,11.37,0,0,0,10.11,21.47v81.58a9.77,9.77,0,0,0,9.72,9.72h83.22a9.73,9.73,0,0,0,9.72-9.72V19.83a9.73,9.73,0,0,0-2.62-6.64l-.24-.22a9.69,9.69,0,0,0-6.86-2.86Z"/></svg>