<svg id="Layer_1" data-name="Layer 1" xmlns="http://www.w3.org/2000/svg" viewBox="0 0 122.88 122.88"><title>r-alphabet</title><path d="M21.47,0h81.58a19.79,19.79,0,0,1,14,5.82l.32.35a19.79,19.79,0,0,1,5.5,13.66v83.22a19.91,19.91,0,0,1-19.83,19.83H19.83A19.91,19.91,0,0,1,0,103.05V21.47A21.56,21.56,0,0,1,21.47,0ZM85.54,89.08H66.08L58.83,72.63H55V89.08H37.34V33.8H65.2q19,0,19,19.37,0,13.28-8.22,17.51l9.55,18.4ZM55,48V59H59.1a12,12,0,0,0,4.64-.66c1-.45,1.46-1.46,1.46-3.05V51.67c0-1.59-.49-2.61-1.46-3.05A12,12,0,0,0,59.1,48Zm48-37.84H21.47A11.37,11.37,0,0,0,10.11,21.47v81.58a9.77,9.77,0,0,0,9.72,9.72h83.22a9.73,9.73,0,0,0,9.72-9.72V19.83a9.73,9.73,0,0,0-2.62-6.64l-.24-.22a9.69,9.69,0,0,0-6.86-2.86Z"/></svg>