<svg id="Layer_1" data-name="Layer 1" xmlns="http://www.w3.org/2000/svg" viewBox="0 0 122.88 122.88"><title>z-alphabet</title><path d="M21.47,0h81.58a19.79,19.79,0,0,1,14,5.82l.32.35a19.79,19.79,0,0,1,5.5,13.66v83.22a19.91,19.91,0,0,1-19.83,19.83H19.83A19.91,19.91,0,0,1,0,103.05V21.47A21.56,21.56,0,0,1,21.47,0Zm63.8,89.08H37.61V78L60.25,48.49,60,48H41.41L39.82,33.8h45.1V44.86L62.55,74.39l.26.54H85.27V89.08Zm17.78-79H21.47A11.37,11.37,0,0,0,10.11,21.47v81.58a9.77,9.77,0,0,0,9.72,9.72h83.22a9.73,9.73,0,0,0,9.72-9.72V19.83a9.73,9.73,0,0,0-2.62-6.64l-.24-.22a9.69,9.69,0,0,0-6.86-2.86Z"/></svg>